<?xml version="1.0" standalone="no"?>
<!DOCTYPE svg PUBLIC "-//W3C//DTD SVG 1.1//EN" "http://www.w3.org/Graphics/SVG/1.1/DTD/svg11.dtd" >
<!--
2013-9-30: Created.
-->
<svg>
<metadata>
Created by iconfont
</metadata>
<defs>

<font id="iconfont" horiz-adv-x="1024" >
  <font-face
    font-family="iconfont"
    font-weight="500"
    font-stretch="normal"
    units-per-em="1024"
    ascent="896"
    descent="-128"
  />
    <missing-glyph />
    
    <glyph glyph-name="x" unicode="x" horiz-adv-x="1001"
d="M281 543q-27 -1 -53 -1h-83q-18 0 -36.5 -6t-32.5 -18.5t-23 -32t-9 -45.5v-76h912v41q0 16 -0.5 30t-0.5 18q0 13 -5 29t-17 29.5t-31.5 22.5t-49.5 9h-133v-97h-438v97zM955 310v-52q0 -23 0.5 -52t0.5 -58t-10.5 -47.5t-26 -30t-33 -16t-31.5 -4.5q-14 -1 -29.5 -0.5
t-29.5 0.5h-32l-45 128h-439l-44 -128h-29h-34q-20 0 -45 1q-25 0 -41 9.5t-25.5 23t-13.5 29.5t-4 30v167h911zM163 247q-12 0 -21 -8.5t-9 -21.5t9 -21.5t21 -8.5q13 0 22 8.5t9 21.5t-9 21.5t-22 8.5zM316 123q-8 -26 -14 -48q-5 -19 -10.5 -37t-7.5 -25t-3 -15t1 -14.5
t9.5 -10.5t21.5 -4h37h67h81h80h64h36q23 0 34 12t2 38q-5 13 -9.5 30.5t-9.5 34.5q-5 19 -11 39h-368zM336 498v228q0 11 2.5 23t10 21.5t20.5 15.5t34 6h188q31 0 51.5 -14.5t20.5 -52.5v-227h-327z" />
    

    
    <glyph glyph-name="back" unicode="&#58884;" d="M512 696.365c-225.174 0-408.365-183.196-408.365-408.365s183.19-408.365 408.365-408.365 408.365 183.196 408.365 408.365-183.19 408.365-408.365 408.365zM512-80.198c-203.025 0-368.198 165.179-368.198 368.198s165.173 368.198 368.198 368.198 368.198-165.179 368.198-368.198-165.173-368.198-368.198-368.198zM634.894 308.083h-197.312l72.829 72.829c7.845 7.845 7.845 20.554 0 28.4-7.845 7.845-20.554 7.845-28.4 0l-107.112-107.113c-7.846-7.845-7.846-20.554 0-28.4l107.113-107.112c3.922-3.922 9.061-5.884 14.199-5.884s10.277 1.962 14.199 5.884c7.845 7.845 7.845 20.554 0 28.4l-72.829 72.829 197.312 0c11.095 0 20.083 8.996 20.083 20.083 0 11.088-8.99 20.083-20.083 20.083z"  horiz-adv-x="1024" />

    
    <glyph glyph-name="zhifa" unicode="&#58984;" d="M827.54370333 374.29096333999996L827.54370333 379.1454811c0 9.70903666-4.8545189 14.56355555-9.70903666 19.41807445 0 9.70903666-4.8545189 19.41807445-4.8545189 24.27259222 0 0 0 4.8545189-4.8545189 4.8545189 4.8545189 4.8545189 9.70903666 9.70903666 9.70903666 14.56355555 0 0-101.94488889 38.83614777-320.39822222 38.83614777s-320.39822222-38.83614777-320.39822222-38.83614777c0-4.8545189 4.8545189-9.70903666 9.70903665-14.56355555 0 0 0 0 0-4.8545189-4.8545189-9.70903666-4.8545189-19.41807445-4.85451889-29.12711111-4.8545189-4.8545189-9.70903666-9.70903666-9.70903666-19.41807445l0-4.8545189c-43.69066667-14.56355555-72.81777778-58.25422222-72.81777778-111.65392555 0-58.25422222 63.10874112-106.79940779 116.50844444-121.36296334 48.54518557-131.072 218.45333333-184.47170333 281.56207446-184.47170333 63.10874112 0 233.01688889 53.39970333 281.56207445 184.47170333 53.39970333 14.56355555 116.50844445 67.96325888 116.50844445 121.36296334C900.3614811 316.03674112 871.23436999 359.72740779000003 827.54370333 374.29096333999996zM754.72592555 199.52829667000003c-19.41807445 0-33.98163001-9.70903666-33.98163001-24.27259221-29.12711111-111.65392555-174.76266667-155.34459221-218.45333333-155.34459221s-189.32622222 48.54518557-218.45333334 155.34459221c-4.8545189 14.56355555-19.41807445 24.27259221-33.98163001 24.27259221-14.56355555 0-72.81777778 33.98163001-72.81777777 63.10874112 0 14.56355555 4.8545189 24.27259221 9.70903665 33.98163002 4.8545189-4.8545189 14.56355555-9.70903666 24.27259221-9.70903666 19.41807445 0 33.98163001 14.56355555 33.98163002 29.12711111l0 24.27259221c0 0 0 0 0 4.8545189 0 14.56355555 4.8545189 29.12711111 4.85451889 38.83614777 58.25422222-29.12711111 150.49007445-63.10874112 247.58044445-63.10874112 97.09036999 0 189.32622222 29.12711111 247.58044444 63.10874112 4.8545189-14.56355555 4.8545189-29.12711111 4.8545189-38.83614777 0 0 0 0 0-4.8545189l0-24.27259221c0-14.56355555 14.56355555-29.12711111 33.98163001-29.12711111 9.70903666 0 19.41807445 4.8545189 24.27259221 9.70903666 4.8545189-9.70903666 9.70903666-19.41807445 9.70903666-33.98163002C827.54370333 233.50992555000005 774.144 199.52829667000003 754.72592555 199.52829667000003zM929.48859221 655.85303666c-276.70755555 0-330.10725888 165.05363001-427.19763 165.05363001-97.09036999 0-121.36296334-165.05363001-427.19763002-165.05363001-48.54518557 0 67.96325888-101.94488889 67.96325888-160.19911111 0 0 140.78103666 33.98163001 364.0888889 33.98163s320.39822222-33.98163001 320.39822222-33.98163C822.68918557 553.90814777 982.88829667 655.85303666 929.48859221 655.85303666zM584.81777778 626.72592555c0-33.98163001-82.52681443-67.96325888-82.52681444-67.96325888s-82.52681443 33.98163001-82.52681443 67.96325888l0 67.96325888 160.19911111 0L579.96325888 626.72592555zM380.928 248.07348109999998m-58.25422222 0a1.36533333 1.36533333 0 1 1 116.50844444 0 1.36533333 1.36533333 0 1 1-116.50844444 0ZM638.2174811 248.07348109999998m-58.25422222 0a1.36533333 1.36533333 0 1 1 116.50844445 0 1.36533333 1.36533333 0 1 1-116.50844445 0Z"  horiz-adv-x="1024" />

    
    <glyph glyph-name="shangchuan" unicode="&#58977;" d="M861.184 32.256h-640.512c-70.656 0-128 53.76-128 119.808v133.632c0 17.92 14.336 31.744 31.744 31.744s31.744-14.336 31.744-31.744v-133.632c0-30.72 28.672-55.808 64-55.808h640.512c35.328 0 64 25.088 64 55.808v123.904c0 17.92 14.336 31.744 31.744 31.744s31.744-14.336 31.744-31.744v-123.904c1.024-66.048-56.32-119.808-126.976-119.808zM545.28 829.44c17.92 0 31.744-14.336 31.744-31.744v-576c0-17.408-14.336-31.744-31.744-31.744s-31.744 14.336-31.744 31.744v575.488c0 17.92 14.336 32.256 31.744 32.256zM545.28 864.256c8.192 0 16.896-3.072 23.040-9.728 12.288-12.8 11.776-32.768-1.024-45.056l-321.024-311.296c-12.8-12.288-33.28-11.776-45.056 1.024-12.288 12.8-11.776 32.768 1.024 45.056l321.024 310.784c6.144 6.144 14.336 9.216 22.016 9.216zM544.256 864.256c8.192 0 15.872-3.072 22.016-9.216l321.536-310.784c12.8-12.288 12.8-32.256 0.512-45.056-12.288-12.8-32.768-12.8-45.056-1.024l-321.536 310.784c-12.8 12.288-13.312 32.768-1.024 45.056 6.656 6.656 14.848 10.24 23.552 10.24z"  horiz-adv-x="1024" />

    
    <glyph glyph-name="sousuo" unicode="&#58937;" d="M942.536129 36.132174 761.426281 217.285001c47.102784 63.995523 74.966389 142.984528 74.966389 228.361011 0 212.869179-173.181271 386.05045-386.02589 386.05045-212.845643 0-386.026914-173.180248-386.026914-386.05045s173.181271-386.051473 386.026914-386.051473c85.365226 0 164.347069 27.862581 228.338498 74.965365l181.15078-181.107801c11.464099-11.464099 26.426883-17.148565 41.388643-17.148565s29.92352 5.684466 41.291428 17.148565C965.367113-23.716912 965.367113 13.300166 942.536129 36.132174zM159.358963 445.646012c0 160.477948 130.529869 291.031353 291.007817 291.031353s291.007817-130.553405 291.007817-291.031353c0-160.454412-130.529869-290.983257-291.007817-290.983257S159.358963 285.192623 159.358963 445.646012z"  horiz-adv-x="1024" />

    
    <glyph glyph-name="riqi" unicode="&#58976;" d="M314.592978 662.779308c-35.655058 0-64.244186 29.106922-64.244186 64.72514L250.348792 795.190013c0 35.619242 28.589129 64.721047 64.244186 64.721047 36.023448 0 64.648392-29.101805 64.648392-64.721047l0-67.684542C379.24137 691.886229 350.616426 662.779308 314.592978 662.779308L314.592978 662.779308zM708.266036 662.779308c-35.651988 0-64.757886 29.106922-64.757886 64.72514L643.508149 795.190013c0 35.619242 29.106922 64.721047 64.757886 64.721047 35.583426 0 64.098877-29.101805 64.098877-64.721047l0-67.684542C772.364913 691.886229 743.849462 662.779308 708.266036 662.779308L708.266036 662.779308zM807.548226 39.469176l-98.365308 0 0 98.293677 98.365308 0L807.548226 39.469176 807.548226 39.469176zM807.548226 203.436598l-98.365308 0 0 98.765421 98.365308 0L807.548226 203.436598 807.548226 203.436598zM807.548226 367.436766l-98.365308 0 0 98.764398 98.365308 0L807.548226 367.436766 807.548226 367.436766zM643.508149 39.469176l-98.287537 0 0 98.293677 98.287537 0L643.508149 39.469176 643.508149 39.469176zM643.508149 203.436598l-98.287537 0 0 98.765421 98.287537 0L643.508149 203.436598 643.508149 203.436598zM643.508149 367.436766l-98.287537 0 0 98.764398 98.287537 0L643.508149 367.436766 643.508149 367.436766zM479.545844 39.469176l-98.289584 0 0 98.293677 98.289584 0L479.545844 39.469176 479.545844 39.469176zM479.545844 203.436598l-98.289584 0 0 98.765421 98.289584 0L479.545844 203.436598 479.545844 203.436598zM479.545844 367.436766l-98.289584 0 0 98.764398 98.289584 0L479.545844 367.436766 479.545844 367.436766zM316.059376 39.469176l-98.289584 0 0 98.293677 98.289584 0L316.059376 39.469176 316.059376 39.469176zM316.059376 203.436598l-98.289584 0 0 98.765421 98.289584 0L316.059376 203.436598 316.059376 203.436598zM316.059376 367.436766l-98.289584 0 0 98.764398 98.289584 0L316.059376 367.436766 316.059376 367.436766zM872.669386 531.911748 152.060231 531.911748l0-558.112224L872.669386-26.200476 872.669386 531.911748 872.669386 531.911748zM872.669386-91.910037 152.060231-91.910037c-36.096103 0-65.710584 29.578666-65.710584 65.709561L86.349647 695.911916c0 36.09508 29.614481 65.196885 65.710584 65.196885l65.709561 0 0-32.618908c0-54.142108 43.598984-98.325399 98.289584-98.325399 54.177923 0 98.289584 44.147476 98.289584 98.325399l0 32.618908 196.619076 0 0-32.618908c0-54.142108 43.562145-98.325399 98.251721-98.325399 54.177923 0 98.365308 44.147476 98.365308 98.325399l0 32.618908 65.12116 0c36.132942 0 65.7464-29.101805 65.7464-65.196885l0-722.112392C938.415786-62.332395 908.800281-91.910037 872.669386-91.910037L872.669386-91.910037zM872.669386-91.910037"  horiz-adv-x="1024" />

    
    <glyph glyph-name="yingyong" unicode="&#58918;" d="M705.28919782 407.63935977C653.79078482 407.63935977 535.00413665 408.77368603 535.00413665 408.77368603 535.00413665 408.77368603 535.32174822 537.67852432 535.32174822 580.8736689 535.32174822 676.52006115 611.41235493 754.10797875 705.28919782 754.10797875 799.1660407 754.10797875 875.25664742 676.52006115 875.25664742 580.8736689 875.25664742 485.18190429 799.1660407 407.63935977 705.28919782 407.63935977L705.28919782 407.63935977ZM319.02841301 13.937394319999953C225.15157013 13.937394319999953 149.10633649 91.47993885000005 149.10633649 187.12633110000002 149.10633649 282.81809570999997 225.15157013 360.36064022999994 319.02841301 360.36064022999994 370.52682673 360.36064022999994 489.31347417 359.22631397 489.31347417 359.22631397 489.31347417 359.22631397 488.99586335 230.32147568000005 488.99586335 187.12633110000002 488.99586335 91.47993885000005 412.9052559 13.937394319999953 319.02841301 13.937394319999953L319.02841301 13.937394319999953ZM149.10633649 580.8736689C149.10633649 676.52006115 225.15157013 754.10797875 319.02841301 754.10797875 412.9052559 754.10797875 488.99586335 676.52006115 488.99586335 580.8736689 488.99586335 537.67852432 489.31347417 408.77368603 489.31347417 408.77368603 489.31347417 408.77368603 370.52682673 407.63935977 319.02841301 407.63935977 225.15157013 407.63935977 149.10633649 485.18190429 149.10633649 580.8736689L149.10633649 580.8736689ZM875.25664742 187.12633110000002C875.25664742 91.47993885000005 799.1660407 13.937394319999953 705.28919782 13.937394319999953 611.41235493 13.937394319999953 535.32174822 91.47993885000005 535.32174822 187.12633110000002 535.32174822 230.32147568000005 535.00413665 359.22631397 535.00413665 359.22631397 535.00413665 359.22631397 653.79078482 360.36064022999994 705.28919782 360.36064022999994 799.1660407 360.36064022999994 875.25664742 282.81809570999997 875.25664742 187.12633110000002L875.25664742 187.12633110000002ZM581.01241071 186.26424330999998C581.01241071 176.05530628999998 581.05778378 177.23500563000005 581.10315686 184.99379782999995 581.91987156 119.52048441 643.62722159 65.70804581000004 708.01158113 65.70804581000004 772.80429837 65.70804581000004 825.34629146 119.24824664000005 825.34629146 185.26603559 825.34629146 251.32919831000004 772.80429837 313.71714381000004 708.01158113 313.71714381000004 672.48448185 313.71714381000004 581.60226073 313.35415916 581.60226073 313.35415916 581.60226073 313.35415916 581.2392761 211.12867477999998 581.10315686 184.99379782999995 581.10315686 185.40215481999996 581.01241071 185.81051252999998 581.01241071 186.26424330999998L581.01241071 186.26424330999998Z"  horiz-adv-x="1024" />

    
    <glyph glyph-name="21pingjunqiwen" unicode="&#58979;" d="M556.68 312.68v300.244h-57.962v-298.754c-49.824-11.79-86.943-56.45-86.943-109.879 0-62.42 50.6-113.026 113.026-113.026 62.42 0 113.026 50.607 113.026 113.026 0 51.337-34.261 94.618-81.147 108.39zM655.216 385.319v311.65c0 72.024-58.391 130.415-130.415 130.415s-130.415-58.39-130.415-130.414v-311.651c-56.154-40.528-92.74-106.488-92.74-181.028 0-123.245 99.91-223.154 223.155-223.154s223.154 99.91 223.154 223.154c0 74.54-36.58 140.5-92.74 181.028zM524.8 33.303c-94.432 0-170.988 76.556-170.988 170.988 0 66.228 37.675 123.616 92.739 152.018v340.66c0 43.217 35.032 78.25 78.249 78.25s78.249-35.033 78.249-78.25v-340.66c55.064-28.402 92.74-85.79 92.74-152.018 0-94.438-76.551-170.988-170.99-170.988z"  horiz-adv-x="1024" />

    
    <glyph glyph-name="open" unicode="&#58893;" d="M88.92871111 588.61795555a46.60337778 46.60337778 0 0 1 0-66.26417777l390.30328889-385.20604445a46.60337778 46.60337778 0 0 1 66.26417778 0l389.57511111 385.20604445a46.60337778 46.60337778 0 1 1-66.26417778 66.26417777L512 238.36444444999995 154.46471111 588.61795555a46.60337778 46.60337778 0 0 1-65.536 0z"  horiz-adv-x="1024" />

    
    <glyph glyph-name="guanbi" unicode="&#58958;" d="M834.661 173.337l-272.724 272.721 271.115 271.123c10.207 10.189 10.207 26.719 0 36.906-10.189 10.189-26.704 10.189-36.909 0l-271.117-271.117-272.127 272.128c-10.255 10.255-26.873 10.255-37.125 0-10.255-10.255-10.255-26.891 0-37.132l272.127-272.124-269.994-269.994c-10.189-10.189-10.189-26.719 0-36.925 10.207-10.187 26.719-10.187 36.909 0l269.995 270.004 272.723-272.721c10.254-10.255 26.87-10.255 37.132 0 10.253 10.254 10.253 26.868 0 37.132z"  horiz-adv-x="1024" />

    
    <glyph glyph-name="shouye" unicode="&#58912;" d="M962.9485233 402.15460471L536.07711731 779.78565847c-13.74799645 12.16218706-34.40494365 12.16218706-48.15164554 0L61.045004 402.15460471a36.36228551 36.36228551 0 0 1-9.90839591-40.10091203 36.34416197 36.34416197 0 0 1 33.98939685-23.46609525h69.48304719v-202.00234098c0-86.84539449 70.64813164-157.49352613 157.49223158-157.49352612H583.31611339c0.71846875 0 1.4304648 0.0271853 2.13857722 0.06861052 52.20613941 1.4239921 94.24885886 44.30557235 94.25015339 96.8508808V251.74738109999998c0 53.44112893-43.47965693 96.91949132-96.91949131 96.91949132H441.21594185c-53.4398344 0-98.2140296-43.4783624-98.21402958-96.91949132l0.46085561-40.2989764v-159.6644668h-31.36148417c-46.75483875 0-84.80390764 38.04259618-84.80390762 84.80261309V374.93434848000004c0 20.06922683-16.27364062 36.3415729-36.34416199 36.34157291h-9.89027239L512 704.0396351100001 842.93576375 411.27592139H833.04549136c-20.07569952 0-36.34416197-16.27364062-36.34416197-36.34157291v-238.34779749c0-29.33423724-14.84835397-56.18943369-39.70607787-71.83651776-16.98952027-10.69676974-22.10035737-33.13370706-11.40617671-50.1219328 10.70712605-16.98434213 33.12852891-22.11200821 50.11675464-11.40099856 46.13993307 29.04037705 73.68382388 78.8904568 73.68382388 133.35944912V338.58889196999996h69.48175265a36.35192921 36.35192921 0 0 1 33.99198593 23.46609525 36.34416197 36.34416197 0 0 1-9.91486861 40.09961749z"  horiz-adv-x="1024" />

    
    <glyph glyph-name="dingwei" unicode="&#59644;" d="M511.639796 769.973702c-166.971849 0-302.097386-135.573745-302.097386-303.100226 0-75.55786 23.237237-128.234593 54.220902-174.865633 28.402887-41.881876 88.221274-98.876961 127.381156-143.345756 43.035142-47.926546 120.495328-147.665131 120.495328-147.665131s103.281271 126.939087 115.761514 141.189649c12.048407 14.245446 92.093465 97.577363 126.94932 143.345756 34.856879 45.76737 59.386552 110.963231 59.386552 181.341115 0.001023 167.527504-135.124514 303.100226-302.097386 303.100226z m0-427.209872c-71.503521 0-129.470747 57.381895-129.470747 128.163985s57.967226 128.163985 129.470747 128.163985 129.470747-57.381895 129.470747-128.163985-57.966203-128.163985-129.470747-128.163985z"  horiz-adv-x="1024" />

    
    <glyph glyph-name="fangda" unicode="&#58926;" d="M565.248 371.2h0zM587.776 349.184zM769.536 569.856h-122.368c-12.288 0-22.528-9.728-22.528-22.528s10.24-22.528 22.528-22.528h68.608l-97.28-97.28c-4.096-4.096-6.656-9.728-6.656-15.872 0-5.632 2.56-11.776 6.656-15.872 4.096-4.096 9.728-6.656 15.872-6.656 6.144 0 11.776 2.56 15.872 6.656l97.28 97.28v-68.096c0-12.288 10.24-22.528 22.528-22.528s22.528 9.728 22.528 22.528v122.368c0 6.144-2.56 11.776-6.656 15.872-4.608 4.608-10.24 6.656-16.384 6.656zM848.384 646.656h-637.952c-11.776 0-22.016-9.728-22.016-22.016v-524.8c0-12.288 9.728-22.016 22.016-22.016h637.952c12.288 0 22.016 9.728 22.016 22.016v524.288c0.512 12.288-9.216 22.528-22.016 22.528zM542.72 121.856h-309.248v204.288h309.248v-204.288zM825.856 121.856h-238.080v227.328c-0.512 11.776-9.216 20.992-20.992 22.016h-333.312v230.4h592.896l-0.512-479.744z"  horiz-adv-x="1024" />

    
    <glyph glyph-name="guanli" unicode="&#58944;" d="M1010.698052-127.996h-0.006c-18.645927 0.005-36.779856 8.155968-48.483811 21.824915-15.953938 18.490928-66.49274 66.59174-107.864578 66.59174-41.08684 0-92.415639-48.377811-107.153582-65.317745-11.676954-13.431948-29.678884-21.456916-48.148812-21.456916-8.796966 0-17.096933 1.787993-24.678903 5.312979l-1.327995 0.615997-125.751509 74.37971-1.248995 0.924996c-22.890911 16.944934-31.605877 50.102804-20.259921 77.110699 0.089 0.207999 11.595955 28.304889 11.595955 53.922789 0 77.738696-59.799766 140.989449-133.299479 140.98945h-4.457983c-0.268999-0.005-0.542998-0.011-0.806997-0.011-21.054918 0-38.195851 19.784923-43.678829 50.392803-0.434998 2.45899-10.728958 60.526764-10.728958 106.279585 0 45.749821 10.29396 103.830594 10.728958 106.276585 5.544978 31.007879 23.05991 50.918801 44.485826 50.386803h4.457983c73.499713 0 133.299479 63.251753 133.299479 140.989449 0 25.6119-11.500955 53.70379-11.624955 53.982789-11.326956 26.984895-2.55899 60.135765 20.43492 77.032699l1.298995 0.952996L680.190343 890.292022l1.383995 0.620998c7.475971 3.370987 15.656939 5.07798 24.325905 5.07798 18.433928 0 36.465858-7.842969 48.253811-20.983918C769.866993 857.61015 819.516799 812.376327 859.701642 812.376327c39.805845 0 89.151652 44.338827 104.80659 61.43376 11.721954 12.86995 29.629884 20.58192 47.875813 20.581919 8.845965 0 17.183933-1.769993 24.778904-5.259979l1.344994-0.626998 128.1795-75.317706 1.267995-0.934996c22.93091-16.927934 31.665876-50.083804 20.31392-77.110699-0.088-0.207999-11.595955-28.306889-11.595954-53.923789 0-77.737696 59.795766-140.989449 133.294479-140.989449h4.460983c21.393916 0.508998 38.936848-19.374924 44.488826-50.380803 0.434998-2.45199 10.726958-60.521764 10.726958-106.276585 0-45.752821-10.29296-103.826594-10.733958-106.279585-5.543978-31.007879-23.08191-50.850801-44.485826-50.387803h-4.451983c-73.499713 0-133.299479-63.250753-133.299479-140.98945 0-25.6119 11.507955-53.69179 11.619954-53.976789 11.321956-26.967895 2.57499-60.123765-20.37392-77.034699l-1.284995-0.951996-130.345491-76.198702-1.359995-0.616998c-7.459971-3.406987-15.611939-5.12998-24.229905-5.12998z m-3.958985 64.951746c0.582998-0.402998 2.227991-1.083996 3.958985-1.083995 0.068 0 0.133999 0 0.194999 0.005999l121.780524 71.188722c-2.938989 7.220972-16.383936 42.277835-16.383936 78.839692 0 109.349573 81.432682 198.972223 183.525284 204.575201 1.470994 8.580966 9.446963 56.865778 9.446963 93.083637 0 36.212859-7.974969 84.47467-9.446963 93.073636-102.092601 5.610978-183.525283 95.224628-183.525284 204.580201 0 36.616857 13.482947 71.71672 16.399936 78.889692L1012.886043 830.507256a10.479959 10.479959 0 0 1-0.522998 0.013c-2.017992 0-3.922985-0.782997-4.560982-1.230995-2.010992-2.192991-19.376924-20.813919-44.323827-39.377847-36.925856-27.469893-71.835719-41.407838-103.776594-41.407838-32.250874 0-67.451737 14.209944-104.612592 42.226835-25.096902 18.916926-42.541834 37.906852-44.558826 40.127843-0.637998 0.453998-2.56999 1.266995-4.624981 1.266996-0.160999 0-0.307999-0.006-0.424999-0.013l-124.094515-72.089719c2.973988-7.314971 16.363936-42.308835 16.363936-78.805692 0-109.354573-81.428682-198.969223-183.520283-204.580201-1.470994-8.581966-9.446963-56.854778-9.446963-93.073636 0-36.216859 7.974969-84.47167 9.452963-93.072637 102.085601-5.613978 183.519283-95.229628 183.519283-204.580201 0-36.691857-13.540947-71.851719-16.418936-78.929691l117.446541-69.458729c0.079-0.006 0.160999-0.006 0.257999-0.006 1.718993 0 3.342987 0.662997 3.924985 1.060996 2.194991 2.49199 19.733923 22.128914 45.007824 41.720837 37.657853 29.193886 73.453713 43.995828 106.369585 43.995828 33.23387 0 69.299729-15.085941 107.181581-44.836825 25.405901-19.959922 43.023832-39.967844 45.214823-42.502834zM854.774661 196.517732c-97.887618 0-177.517307 84.223671-177.517307 187.759267 0 103.527596 79.629689 187.758267 177.517307 187.758266 97.886618 0 177.528307-84.230671 177.528307-187.758266-0.006-103.535596-79.641689-187.759267-177.528307-187.759267z m0 311.648783c-64.589748 0-117.138542-55.574783-117.138542-123.890516 0-68.320733 52.548795-123.902516 117.138542-123.902516 64.588748 0 117.143542 55.583783 117.143542 123.902516-0.001 68.315733-52.550795 123.890516-117.143542 123.890516z"  horiz-adv-x="1721" />

    
    <glyph glyph-name="shiliufenping" unicode="&#59065;" d="M134.26688 762.71616H271.5136v-137.2416H134.26688zM340.18304 762.71616h137.2416v-137.2416H340.18304zM546.10432 762.71616h137.2416v-137.2416h-137.2416zM134.26688 556.8H271.5136v-137.2416H134.26688zM340.18304 556.8h137.2416v-137.2416H340.18304zM546.10432 556.8h137.2416v-137.2416h-137.2416zM134.26688 350.8736H271.5136v-137.23648H134.26688zM340.18304 350.8736h137.2416v-137.23648H340.18304zM546.10432 350.8736h137.2416v-137.23648h-137.2416zM752.128 762.71616h137.3696v-137.2416H752.128zM752.128 556.8h137.3696v-137.2416H752.128zM752.128 350.8736h137.3696v-137.23648H752.128zM134.26688 143.57504H271.5136v-137.24672H134.26688zM340.18304 143.57504h137.2416v-137.24672H340.18304zM546.10432 143.57504h137.2416v-137.24672h-137.2416zM752.128 143.57504h137.3696v-137.24672H752.128z"  horiz-adv-x="1024" />

    
    <glyph glyph-name="jiufenping" unicode="&#59066;" d="M129.71008 766.28992h191.14496v-191.14496H129.71008zM416.43008 766.28992h191.14496v-191.14496H416.43008zM703.14496 766.28992h191.14496v-191.14496h-191.14496V766.28992zM129.71008 479.56992h191.14496v-191.13984H129.71008zM416.43008 479.56992h191.14496v-191.13984H416.43008zM703.14496 479.56992h191.14496v-191.13984h-191.14496V479.56992zM129.71008 192.85504h191.14496v-191.14496H129.71008zM416.43008 192.85504h191.14496v-191.14496H416.43008zM703.14496 192.85504h191.14496v-191.14496h-191.14496v191.14496z"  horiz-adv-x="1024" />

    
    <glyph glyph-name="sifenping" unicode="&#59067;" d="M126.63808 769.36704h337.18784V432.1792H126.63808zM560.16896 769.36704h337.18784V432.1792h-337.18784zM126.63808 335.83104h337.18784v-337.18784H126.63808zM560.16896 335.83104h337.18784v-337.18784h-337.18784z"  horiz-adv-x="1024" />

    
    <glyph glyph-name="qiyexinxichaxun" unicode="&#58881;" d="M1098.644034 60.695639c164.963248 201.178782 153.024964 499.32406-35.278376 686.284531C863.529745 945.474892 539.365344 944.400262 340.870622 744.433582c-139.750517-140.556909-180.391984-342.679555-122.724086-519.441938 3.75869-14.089221 16.503366-24.686313 31.925396-24.686313 18.369299 0 33.124086 14.895612 33.124086 33.134145 0 2.947269-0.536477 5.765449-1.205396 8.585305h0.130766c-15.153792 44.65666-23.333386 92.399738-23.333385 142.297105 0 245.702999 199.031198 444.740904 444.74258 444.740904 245.702999 0 444.734198-199.037904 444.734198-444.740904 0-245.706352-199.168671-444.601755-444.734198-444.601755-113.065828 0-216.33928 42.245868-294.793975 111.719607-6.176189 7.64647-15.428736 12.741323-26.025829 12.741323-18.506771 0-33.392325-15.023026-33.392325-33.392325 0-10.46465 5.094853-19.852993 12.607204-26.027505l-0.268238-0.261532c188.839817-170.061454 474.649483-174.354944 668.315913-13.150387l91.873321-91.326784c18.905776-18.781716 50.026457-18.644244 68.801466 0.264885 19.313163 18.905776 19.18072 50.02981 0.268239 68.801467l-92.272325 91.606759z m0 0M1039.096791 359.241598c12.199817 12.333936 12.199817 32.185252-0.137472 44.391775l-325.775508 324.434315-0.399004 0.536477-0.405711-0.399005-343.348474-306.195782a31.425802 31.425802 0 0 1-2.546588-44.391775 31.41239 31.41239 0 0 1 44.393451-2.549941l299.489823 267.167099 284.466798-283.122253c12.206523-12.213229 32.054486-12.213229 44.262685 0.12909z m0 0M511.735115 355.62038c-17.301375 0-31.382213-13.951749-31.382214-31.385567v-238.195677h460.432849v153.428998c0 17.304728-13.948396 31.388919-31.38892 31.388919-17.301375 0-31.382213-13.945043-31.382213-31.388919v-90.661218h-135.861061v137.472167h139.619751c17.294669 0 31.382213 13.951749 31.382214 31.382214 0 17.301375-13.948396 31.392272-31.382214 31.392272h-139.619751v93.075364c0 17.303052-13.948396 31.382213-31.382213 31.382213a31.2548 31.2548 0 0 1-31.38892-31.382213v-293.452784H543.38389V324.234813c-0.259856 17.301375-14.3474 31.385566-31.648775 31.385567z m0 0"  horiz-adv-x="1411" />

    
    <glyph glyph-name="danxuankuangxuanzhong" unicode="&#59032;" d="M512.1 830.6c-247.4 0-448-200.6-448-448s200.6-448 448-448 448 200.6 448 448-200.6 448-448 448z m0-832c-212.1 0-384 171.9-384 384s171.9 384 384 384 384-171.9 384-384-171.9-384-384-384zM512.1 384.6m-285 0a285 285 0 1 1 570 0 285 285 0 1 1-570 0Z"  horiz-adv-x="1024" />

    
    <glyph glyph-name="tonghua" unicode="&#59017;" d="M509.594-62.469c-246.052 0-445.513 199.461-445.513 445.507 0 246.052 199.46 445.513 445.513 445.513 246.047 0 445.507-199.46 445.507-445.513 0-246.047-199.46-445.507-445.507-445.507z m-34.249 411.037c-44.106 43.995-86.261 95.006-66.046 115.166 28.899 28.844 54.018 46.608 2.893 110.263-51.121 63.654-85.315 14.755-113.327-13.197-32.298-32.303-1.67-152.533 117.283-271.374 118.951-118.841 239.462-149.41 271.76-116.945 27.842 27.845 76.851 61.98 13.197 113.16-63.651 51.175-81.473 25.951-110.374-2.898-20.215-20.215-71.28 21.83-115.386 65.825z m0 0"  horiz-adv-x="1024" />

    
    <glyph glyph-name="qiyeguanli" unicode="&#58913;" d="M401.26 269.732h120.012v89.57H401.26v-89.57zM521.277 508.59H401.265v-89.57h120.012v89.57z m-179.148 0H222.116v-89.57h120.013v89.57z m0 151.04H222.116v-89.57h120.013v89.57zM222.116 269.732h120.013v89.57H222.116v-89.57zM521.277 659.63H401.265v-89.57h120.012v89.57z m236.55-240.604V508.59H698.69v-89.57h59.136zM161.239 88.837V750.956h417.439v-470.467a231.076 231.076 0 0 0 60.877 75.945V570.06h179.148v-165.596a225.152 225.152 0 0 0 59.141-18.11v243.42H639.55V810.665H102.103v-721.833H72.535v-59.71h534.64a231.101 231.101 0 0 0-35.716 59.71h-410.22z m746.45 127.949a136.361 136.361 0 0 1-13.496 32.88l25.64 39.066-0.045 0.046-36.475 36.818-0.036 0.046-38.697-25.886a133.58 133.58 0 0 1-32.563 13.624l-9.237 45.926H751.09l-9.227-45.926a133.786 133.786 0 0 1-32.563-13.624l-38.697 25.886-0.036-0.046-36.474-36.818-0.036-0.046 25.636-39.065a136.53 136.53 0 0 1-13.502-32.886l-45.476-9.319v-52.193l45.486-9.318a136.228 136.228 0 0 1 13.497-32.891l-25.636-39.066 0.036-0.046 36.475-36.818 0.035-0.046 38.697 25.887a133.786 133.786 0 0 1 32.564-13.624l9.236-45.927h51.686l9.232 45.927a134.185 134.185 0 0 1 32.563 13.624l38.697-25.887 0.036 0.046 36.475 36.818 0.04 0.046-25.635 39.066a136.264 136.264 0 0 1 13.496 32.89l45.486 9.32v52.192l-45.491 9.324z m-130.744-97.224c-33.792 0-61.195 27.669-61.195 61.799s27.403 61.798 61.195 61.798c33.802 0 61.199-27.668 61.199-61.798s-27.397-61.799-61.2-61.799z"  horiz-adv-x="1024" />

    
    <glyph glyph-name="chakan" unicode="&#59204;" d="M971.36 424.8c-5.76 68.16-25.92 131.52-60 190.56C891.2 649.92 866.72 681.6 838.4 710.4c-33.6 33.6-71.52 61.92-114.24 84-44.64 23.52-92.16 38.88-142.08 46.56-31.68 4.8-63.36 6.72-95.04 4.8-43.68-2.4-86.4-10.56-128.16-24.96-50.4-17.76-96-43.2-137.28-76.32-45.6-37.44-83.52-81.6-112.32-132.48-27.84-48.96-46.08-101.28-54.24-156.48-5.76-36.96-7.2-73.92-3.84-111.36 4.8-56.16 19.68-109.92 44.16-161.28 17.76-37.44 40.32-71.04 67.68-102.24 41.28-47.52 90.24-84.96 146.88-112.32 42.24-21.12 87.36-35.04 134.4-41.28 12.96-1.92 25.92-3.36 38.88-4.32 0.96 0 1.92 0 2.88-0.96h50.88c5.28 1.92 10.08 1.44 15.84 1.92 68.16 6.24 131.52 25.92 190.56 60 35.04 20.16 66.72 44.64 95.52 72.96 33.6 33.6 61.44 71.04 83.52 113.76 23.52 45.12 38.88 92.16 47.04 142.56 2.4 13.92 3.84 27.36 4.8 41.28 0 1.44 0 2.88 0.96 3.84V408.96c-3.84 4.8-3.36 10.56-3.84 15.84zM490.88 621.12c0 4.8 0.96 6.72 6.24 6.24 10.08-0.48 20.64-0.48 30.72 0 4.8 0 6.24-1.92 6.24-6.24-0.48-15.84 0-31.68 0-48v-48c0-4.32-1.44-6.24-5.76-6.24-10.56 0.48-21.12 0.48-31.2 0-4.8 0-5.76 1.44-5.76 5.76 0 32.64 0 64.32-0.48 96.48zM236 489.12c-2.88 2.88-2.4 4.8 0.48 7.68 7.68 7.68 15.36 15.84 23.04 23.52 2.88 3.36 4.8 1.44 6.72-0.96l33.6-35.04c7.68-8.16 16.32-16.8 24-24.96 1.44-1.44 2.88-2.4 3.36-4.8-0.48-0.96-1.44-1.92-1.92-2.88-7.68-7.68-15.84-15.84-23.52-24-2.4-2.4-3.84-2.88-6.24 0L252.8 471.84c-6.24 6.24-11.04 12-16.8 17.28z m517.44-176.16c-13.44-20.16-27.84-39.36-43.2-58.08-11.04-13.44-23.04-26.4-35.52-38.88-28.32-28.8-60.48-52.8-99.36-66.24-18.24-6.72-37.44-9.12-56.64-8.64-31.2-0.96-60.48 8.64-88.32 22.08-30.24 14.4-57.12 33.6-82.08 56.16-13.92 12.96-26.88 26.4-38.88 40.32-13.92 17.28-26.88 35.04-38.88 54.24-1.44 2.4-1.44 4.32 0 6.72 7.2 12 14.88 23.52 23.04 34.56 12.96 17.76 27.36 34.56 43.2 49.92 26.4 25.44 55.68 47.52 89.28 63.36 24 11.52 48.96 18.72 75.36 22.08 19.68 2.4 38.88-0.96 58.08-6.24 32.16-8.16 59.52-25.44 85.44-46.08 29.76-23.52 55.2-50.88 79.2-80.16 9.6-12 19.2-24 28.32-36.48 2.88-3.36 2.88-5.28 0.96-8.64z m32.64 177.12l-60-60c-0.96-0.96-2.4-1.92-3.36-2.88-1.44 0.96-2.4 1.92-3.36 2.88-7.68 7.68-15.36 15.84-23.52 23.52-2.88 2.88-2.4 4.32 0 7.2 20.16 19.68 39.36 39.36 59.52 59.52 2.4 2.4 4.32 3.84 7.68 0.48 7.68-7.68 15.36-15.84 23.52-23.52 2.4-2.88 2.4-4.32-0.48-7.2zM671.84 377.76c-24 24-50.88 44.64-81.6 60-24 12-49.92 19.2-80.16 19.68-22.56-1.44-46.56-6.72-70.08-17.28-33.6-15.36-61.92-37.92-87.36-63.84-16.8-16.8-30.72-35.52-44.64-54.24-2.88-3.84-2.88-6.24 0-9.6 21.12-26.88 43.2-52.8 70.56-74.4 21.6-17.28 44.16-32.64 69.6-42.72 19.2-7.68 38.88-13.92 60-14.88 42.24-1.44 78.72 14.88 113.28 37.44 37.92 24.48 66.72 57.12 92.16 93.6 6.24 8.64 6.24 9.12-0.48 17.76-12.96 17.28-25.92 33.6-41.28 48.48z m-161.28-144.96c-48.96 0-88.32 38.88-88.32 87.84 0 48.48 39.36 87.84 87.84 87.84 48.96 0 87.84-38.88 87.84-87.84 0.96-48.48-38.4-87.84-87.36-87.84zM510.08 372.48c-25.92 1.44-52.32-23.04-51.84-52.8 0.96-28.8 22.56-51.84 51.84-51.36 30.24 0 51.84 21.6 52.32 52.32 0.48 28.8-22.56 51.84-52.32 51.84z"  horiz-adv-x="1024" />

    
    <glyph glyph-name="weixinxunjian" unicode="&#59205;" d="M512 568.95c-164.7 0-252-180-252-180s86.4-180 252-180c154.8 0 252 180 252 180s-95.85 180-252 180z m0-288c-59.85 0-108.45 48.15-108.45 108s48.6 108 108.45 108 108.45-48.6 108.45-108c0-59.85-48.6-108-108.45-108zM512 458.7c-6.75 0-13.05-0.9-19.35-2.7l19.35-67.05-65.25 26.1c-3.15-8.1-4.95-16.65-4.95-26.1 0-38.25 31.5-69.75 70.2-69.75s70.2 31.05 70.2 69.75c0 38.25-31.5 69.75-70.2 69.75zM673.1 65.85000000000002l-93.15 78.3c-8.55 7.2-21.6 5.85-28.8-2.7-7.2-8.55-5.85-21.15 2.7-28.35l58.05-48.6c-32.4-10.35-65.7-15.75-99.45-15.75-179.55 0-324.9 145.35-324.9 324.9 0 93.6 39.6 177.75 103.05 237.15l-28.8 28.8C190.7 573 146.6 478.5 146.6 373.65c0-202.05 163.8-365.4 365.85-365.85 27.45 0 54.45 3.15 81 9.45l-39.15-32.85c-8.55-7.2-9.9-19.8-2.7-28.35 7.2-8.55 19.8-9.9 28.8-2.7l93.15 78.3c4.95 4.05 7.65 10.8 6.75 17.1 0.45 6.3-1.8 12.6-7.2 17.1zM512 739.5c-30.15 0-58.95-4.05-87.3-11.25l65.7 54.9c8.55 7.2 9.45 20.25 2.25 28.8-7.2 8.55-19.8 9.45-28.35 2.25L371.15 736.35c-4.5-4.05-7.2-9.9-7.2-15.75-0.45-4.05 0-8.1 1.8-11.7-0.45 0-0.45 0-0.9-0.45l4.05-4.05c0.45-0.9 0.9-1.8 1.8-2.25l2.7-2.25 90.9-76.05c8.55-7.2 21.15-5.85 28.35 2.7 7.2 8.55 6.3 21.6-2.25 28.8l-44.1 36.9c21.15 4.5 42.75 7.2 65.25 7.2 179.55 0 324.9-145.35 324.9-324.9 0-88.65-35.55-168.75-92.7-227.25l28.8-28.8c64.8 65.7 104.85 156.15 104.85 256.05 0 201.15-163.35 364.95-365.4 364.95z"  horiz-adv-x="1024" />

    
    <glyph glyph-name="zhihuitiaodu" unicode="&#59206;" d="M443.36 639.36c10.56-10.56 32.16-10.56 42.72 0l74.88 71.52v-325.44a32.16 32.16 0 0 1 64.32 0V718.08l82.08-78.72c10.56-10.56 32.16-10.56 42.72 0s10.56 28.8 0 39.36l-135.84 128.64c-10.56 10.56-32.16 10.56-42.72 0L436.16 678.72c-3.36-11.04-3.36-28.8 7.2-39.36zM386.24 147.84000000000003c-17.76 0-32.16-14.4-32.16-32.16v-132.48a32.16 32.16 0 0 1 64.32 0v132.48c3.36 17.76-10.56 32.16-32.16 32.16zM936.8 231.84000000000003l-128.64 135.84c-10.56 10.56-28.8 10.56-42.72 0-10.56-10.56-10.56-32.16 0-42.72l82.08-85.92H236c-60.96 3.36-110.88 53.76-110.88 118.08S178.88 475.2 239.36 475.2C303.68 475.2 353.6 421.44 353.6 357.12v-7.2c0-17.76 7.2-32.16 24.96-35.52 14.4-3.36 28.8 3.36 35.52 17.76v3.36c0 10.56 3.36 17.76 3.36 21.6 0 100.32-78.72 178.56-178.56 178.56S60.8 456.96 60.8 356.64c0-46.56 17.76-89.28 49.92-125.28C142.88 199.20000000000005 185.6 177.60000000000002 228.8 177.60000000000002h604.32L761.6 102.72000000000003c-10.56-10.56-10.56-32.16 0-42.72s28.8-10.56 39.36 0l128.64 135.84c17.76 3.36 17.76 21.6 7.2 36z"  horiz-adv-x="1027" />

    
    <glyph glyph-name="keshipeizhi" unicode="&#59207;" d="M621.7728 131.14026666999996H921.6c19.11466667 0 34.4064 15.29173333 34.4064 34.4064s-15.29173333 34.4064-34.4064 34.4064h-299.8272c-15.29173333 48.60586667-59.52853333 81.92-110.86506667 81.92s-95.57333333-33.31413333-110.86506666-81.92H102.4c-19.11466667 0-34.4064-15.29173333-34.4064-34.4064s15.29173333-34.4064 34.4064-34.4064h298.1888c15.29173333-48.60586667 59.52853333-81.92 110.86506667-81.92 50.7904 0 95.57333333 33.31413333 110.31893333 81.92zM438.272 552.7552000000001H921.6c19.11466667 0 34.4064 15.29173333 34.4064 34.4064s-15.29173333 34.4064-34.4064 34.4064H438.272c-15.29173333 48.60586667-59.52853333 81.92-110.86506667 81.92s-95.57333333-33.31413333-110.86506666-81.92H102.4c-19.11466667 0-34.4064-15.29173333-34.4064-34.4064s15.29173333-34.4064 34.4064-34.4064h114.14186667c15.29173333-48.60586667 59.52853333-81.92 110.86506666-81.92s96.11946667 33.31413333 110.86506667 81.92z"  horiz-adv-x="1024" />

    
    <glyph glyph-name="jianduqiye" unicode="&#59208;" d="M821.76 710.656c-7.68-0.512-14.848-0.512-21.504-0.512-94.208 0-160.256 22.528-199.68 40.96-41.984 19.968-62.976 40.448-65.536 43.008L512 819.2l-22.528-24.576c-2.048-2.048-23.04-23.04-64.512-43.008-38.912-18.944-105.472-41.472-201.216-41.472-7.168 0-14.336 0-21.504 0.512l-31.744 1.024v-392.704c0-102.912 34.304-252.928 330.24-367.616l11.264-4.608 11.264 4.608c295.936 114.688 330.24 264.704 330.24 367.616V712.192l-31.744-1.536z m-9.216-40.96v-354.816c0-57.344 0-208.896-300.544-328.704-300.544 120.32-300.544 271.872-300.544 328.704V670.208c72.192 0.512 139.264 12.288 198.144 34.816 48.128 17.92 81.92 39.936 102.4 55.296 20.48-15.872 54.272-37.376 102.4-55.808 58.88-22.016 125.952-33.792 198.144-34.816zM707.072 245.248h-28.672V473.6c0 10.752-8.704 18.944-18.944 18.944h-76.288V549.888c0 15.872-3.072 28.672-18.944 28.672H373.76c-15.872 0-28.672-12.8-28.672-28.672v-304.64h-28.672c-5.12 0-9.216-4.096-9.216-9.216v-37.888c0-5.12 4.096-9.216 9.216-9.216H706.56c5.12 0 9.216 4.096 9.216 9.216v37.888c0.512 4.608-3.584 9.216-8.704 9.216z m-257.024 37.888c0-10.752-8.704-18.944-18.944-18.944h-18.944c-10.752 0-18.944 8.704-18.944 18.944V302.08c0 10.752 8.704 18.944 18.944 18.944h18.944c10.752 0 18.944-8.704 18.944-18.944v-18.944z m0 95.232c0-10.752-8.704-18.944-18.944-18.944h-18.944c-10.752 0-18.944 8.704-18.944 18.944v18.944c0 10.752 8.704 18.944 18.944 18.944h18.944c10.752 0 18.944-8.704 18.944-18.944v-18.944z m0 95.232c0-10.752-8.704-18.944-18.944-18.944h-18.944c-10.752 0-18.944 8.704-18.944 18.944v18.944c0 10.752 8.704 18.944 18.944 18.944h18.944c10.752 0 18.944-8.704 18.944-18.944v-18.944z m85.504-190.464c0-10.752-8.704-18.944-18.944-18.944h-18.944c-10.752 0-18.944 8.704-18.944 18.944V302.08c0 10.752 8.704 18.944 18.944 18.944h18.944c10.752 0 18.944-8.704 18.944-18.944v-18.944z m0 95.232c0-10.752-8.704-18.944-18.944-18.944h-18.944c-10.752 0-18.944 8.704-18.944 18.944v18.944c0 10.752 8.704 18.944 18.944 18.944h18.944c10.752 0 18.944-8.704 18.944-18.944v-18.944z m0 95.232c0-10.752-8.704-18.944-18.944-18.944h-18.944c-10.752 0-18.944 8.704-18.944 18.944v18.944c0 10.752 8.704 18.944 18.944 18.944h18.944c10.752 0 18.944-8.704 18.944-18.944v-18.944z m104.96-161.792c0-5.12-4.096-9.216-9.216-9.216h-18.944c-5.12 0-9.216 4.096-9.216 9.216v18.944c0 5.12 4.096 9.216 9.216 9.216h18.944c5.12 0 9.216-4.096 9.216-9.216v-18.944z m0 76.288c0-5.12-4.096-9.216-9.216-9.216h-18.944c-5.12 0-9.216 4.096-9.216 9.216v18.944c0 5.12 4.096 9.216 9.216 9.216h18.944c5.12 0 9.216-4.096 9.216-9.216v-18.944z"  horiz-adv-x="1024" />

    
    <glyph glyph-name="zaixianpeixun" unicode="&#59209;" d="M105.36759002 355.01898704999996l54.2113792-40.85174422-17.28338046-300.00794992h78.42960116l13.05800755 255.67389772h33.33953865l16.13771411-255.67389771h73.49093766l-11.46831455 300.00924445-6.20601647 183.30144109 179.28060523 2.99426702 38.6005422 67.86487436-201.3395374 9.55369244h-90.73418744l6.70570824-11.33497711-8.90642332-18.05233619 19.36240894-138.04956128-30.16791989-30.68055704v-2.4285538l-1.21557143 1.18709158-1.14566636-1.18709158v2.4285538l-30.18215981 30.68055704 19.30803831 138.04956128-8.85205269 18.05233619 6.65133764 11.33368257H146.76174579l-41.39286126-222.86253069z m146.61940463 416.22900687c-47.31537383 0-85.68807728-38.37011437-85.68807727-85.64665205 0-47.41246419 38.37140891-85.78257857 85.68807727-85.78257858 47.34385367 0 85.72691342 38.37140891 85.72691343 85.78128403 0 47.27783221-38.38435429 85.64794658-85.72691343 85.6479466zM441.38571103 398.14135143l77.56614414 27.03772634 6.09727527 2.13080999 5.56004187-3.48101342 58.55455511-36.86068273 48.47786919 138.88712754 7.40605344 21.15534442 15.31438776-16.32542213 44.28227066-47.08624056 64.71914635 111.25261907 23.51658225-13.57193924-73.85470294-127.0938839-9.25594865-15.78559967-12.47934895 13.22111935-41.37991583 44.11915884-46.68105008-133.83972283-5.68043394-16.13641954-14.43539626 9.12002212-67.46097841 42.44661539-71.30446254-24.87973104-8.96208845 25.690112z m14.2205029-337.62334847h262.25662483v-46.35741549H455.60750846v46.35741549z m165.10152755 149.3275787v-135.05399972H545.88084031V209.84558166H404.39169084v54.4275671H848.07785442V692.88700324H381.96769888v54.48064317h520.58691508v-537.5207702H620.709036z"  horiz-adv-x="1024" />

    
    <glyph glyph-name="zaixianjiance" unicode="&#59210;" d="M621.056 350.20799999999997L505.856 572.928 379.392 395.264 309.76 449.024 190.464 393.728l33.28-14.336 76.288 35.84 92.16-71.168 106.496 150.528 117.248-227.328 100.352 158.72 40.96-65.536 45.056 5.632L716.8 502.784l-95.744-152.576z m277.504-212.48c-15.36 22.528-34.304 39.936-57.344 51.2 6.144-10.24 9.216-20.992 9.216-32.768 0-17.92-6.656-33.28-19.968-45.568s-29.184-18.944-47.616-18.944-34.304 6.144-47.616 18.944-19.968 27.648-19.968 45.568c0 11.776 3.072 22.528 9.216 32.768-23.04-11.264-41.984-28.16-57.344-51.2 13.312-19.968 30.208-35.328 50.176-47.104 19.968-11.776 41.984-17.408 65.536-17.408s45.568 5.632 65.536 17.408c20.48 11.776 36.864 27.136 50.176 47.104z m-108.544 55.296c0 2.048-0.512 3.584-2.048 5.12-1.536 1.536-3.072 2.048-5.12 2.048-12.8 0-23.552-4.096-32.256-12.8s-13.312-18.944-13.312-31.232c0-2.048 0.512-3.584 2.048-5.12 1.536-1.536 3.072-2.048 5.12-2.048s3.584 0.512 5.12 2.048c1.536 1.536 2.048 3.072 2.048 5.12 0 8.192 3.072 15.36 9.216 20.992 6.144 6.144 13.312 8.704 22.016 8.704 2.048 0 3.584 0.512 5.12 2.048 1.536 1.536 2.048 3.584 2.048 5.12z m128-55.296c0-3.072-1.024-6.656-3.072-9.728-14.336-22.016-32.768-39.936-56.832-53.248-23.552-13.312-48.64-19.968-75.264-19.968s-51.712 6.656-75.264 19.968c-23.552 13.312-42.496 31.232-56.832 53.248-2.048 3.584-3.072 6.656-3.072 9.728 0 3.072 1.024 6.656 3.072 9.728 14.336 22.016 32.768 39.936 56.832 53.248 23.552 13.312 48.64 19.968 75.264 19.968s51.712-6.656 75.264-19.968c23.552-13.312 42.496-31.232 56.832-53.248 2.048-3.072 3.072-6.656 3.072-9.728z m16.384 3.072c2.048-26.112-34.304-57.344-54.272-70.656h41.472c35.84 0 40.96 12.8 40.96 30.208v40.448h-28.16zM141.312 162.81600000000003V669.184l743.424-5.12v-460.288c18.432-4.096 34.816-26.624 40.96-30.208V677.376c0 17.408-12.8 31.232-28.672 31.232l-768 5.12c-15.872 0-28.672-13.824-28.672-31.232v-543.232H41.984v-37.888c0-17.408 12.8-31.232 28.672-31.232h609.792m-237.568 37.888v20.48h117.76v-20.48h-117.76z m237.568-37.888c-28.16 20.992-76.8 61.952-39.936 92.16-17.92 0-499.2 0.512-499.2 0.512"  horiz-adv-x="1025" />

    
    <glyph glyph-name="juecefenxi" unicode="&#59211;" d="M587.664 525.914c-26.856 0-49.851 15.873-60.588 38.652l-50.227-28.995c6.285-13.144 10.098-27.688 10.098-43.23 0-20.735-6.295-39.992-17.037-56.01l94.224-54.4c6.061 5.97 14.352 9.692 23.53 9.692 18.54 0 33.571-15.033 33.571-33.574 0-18.542-15.032-33.57-33.57-33.57-18.544 0-33.573 15.03-33.573 33.57 0 3.272 0.99 6.232 1.862 9.22l-96.818 55.898c-18.354-19.337-44.14-31.543-72.904-31.543-55.625 0-100.718 45.092-100.718 100.716 0 55.625 45.091 100.718 100.718 100.718 34.069 0 64.058-17.024 82.285-42.913l53.234 30.731c-0.73 3.964-1.232 8.01-1.232 12.182 0 37.083 30.06 67.145 67.145 67.145 37.085 0 67.145-30.062 67.145-67.145 0-37.082-30.061-67.144-67.145-67.144zM582.773-19.78200000000004H421.1c-40.408 0-73.28 32.643-73.28 72.768V189.63099999999997c-51.384 23.826-95.263 60.715-127.574 107.419-36.26 52.413-55.427 113.82-55.427 177.582 0.005 84.107 33.09 163.164 93.154 222.608 60 59.378 139.755 92.08 224.573 92.08 76.007 0 149.555-27.008 207.093-76.048 55.853-47.604 93.336-112.958 105.88-184.436l68.333-119.338c9.672-16.885 9.622-37.021-0.138-53.859-9.848-16.99-27.5-27.134-47.222-27.134h-23.978v-129.321c0-49.798-40.749-90.311-90.834-90.311a92.323 92.323 0 0 0-20.126 2.236l-25.506 3.487v-61.61c0-40.125-32.871-72.768-73.275-72.768zM482.545 742.252c-149.233 0-270.65-120.054-270.66-267.622 0-109.156 66.058-206.403 168.29-247.745l14.71-5.95v-167.95c0-14.172 11.76-25.701 26.214-25.701h161.673c14.45 0 26.207 11.529 26.207 25.701V168.53700000000003l81.138-11.095 1.117-0.266a45.234 45.234 0 0 1 10.443-1.238c24.134 0 43.767 19.399 43.767 43.243V375.573h71.046c3.804 0 5.706 2.298 6.499 3.668 0.906 1.563 1.644 4.022 0.016 6.864l-72.55 126.71-0.68 4.233c-21.001 130.492-133.388 225.204-267.23 225.204z"  horiz-adv-x="1024" />

    
    <glyph glyph-name="yangguangzhifa" unicode="&#59212;" d="M553.76 99.36000000000001V662.4h144l-114.72-240h36l110.4 231.84L814.4 421.92h35.04l-93.12 246.24v34.08h-195.36c2.88 5.76 3.84 12.48 3.84 18.72 0 26.88-23.04 48.48-51.36 48.48-28.32 0-51.36-21.6-51.36-48.48 0-6.72 1.44-12.96 3.84-18.72H266.24V662.4L175.52 421.92h35.04l84.96 232.32L406.4 422.4h36L327.68 662.4H473.6v-562.56L263.84 48v-40.32h493.44V48l-203.04 51.36h-0.48zM442.4 394.56l-269.76 0.48c0-85.44 46.08-154.08 131.52-154.08 84.96 0 139.68 61.44 138.24 153.6z m140.64 0c-1.44-92.16 53.28-153.6 138.24-153.6 85.44 0 131.52 68.64 131.52 154.08l-269.76-0.48z"  horiz-adv-x="1024" />

    
    <glyph glyph-name="hangzhengchufa" unicode="&#59213;" d="M871.53719999 522.06250667c0 13.98101333-4.07779555 39.03032889-30.29219554 55.34151111l-297.67907557 181.75317333c-26.2144 15.72864-68.73998222 15.72864-94.95438221 0l-297.09653334-181.75317333c-26.2144-15.72864-30.29219555-41.36049778-30.29219555-55.34151111s4.07779555-39.03032889 30.29219555-55.34151112L449.19408888 285.55036444999996c12.81592889-8.15559111 29.70965333-12.23338667 47.18592-12.23338667s34.36999111 4.66033778 47.18592 12.23338667l297.09653334 181.75317333c26.79694222 15.72864 30.87473778 41.36049778 30.87473777 54.75896889zM528.41983111 697.40771555c-15.72864 9.90321778-47.18592 9.90321778-62.91456001 0l-286.0282311-174.76266666 286.0282311-174.76266667c15.72864-9.90321778 47.18592-9.90321778 62.91456001 0l286.0282311 174.76266667c-0.58254222 0-286.02823111 174.76266667-286.0282311 174.76266666zM569.78032888 96.80668445000003l-41.36049777-25.04931556c-15.72864-9.90321778-47.18592-9.90321778-62.91456001 0l-286.0282311 174.76266666h-57.67168c0-13.98101333 4.07779555-39.03032889 30.29219555-55.3415111l297.09653333-182.33571556c12.81592889-8.15559111 29.70965333-12.23338667 47.18592-12.23338667s34.36999111 4.66033778 47.18592 12.23338667l58.25422223 35.53507556c-12.81592889 15.72864-23.88423111 33.20490667-32.03982223 52.4288zM861.05144 336.81408c8.15559111 11.65084445 10.48576 24.46677333 10.48575999 33.78744889h-62.33201777l-9.90321778-5.82542222c22.13660445-5.82542222 43.10812445-15.14609778 61.74947556-27.96202667zM554.05168889 174.28480000000002c0 15.14609778 1.74762667 29.70965333 4.66033778 43.69066667l-30.87473778-18.64135112c-15.72864-9.90321778-47.18592-9.90321778-62.91456 0l-280.78535111 171.84995556H121.80536c0.58254222-13.98101333 5.82542222-37.28270222 30.29219555-52.4288l297.09653333-182.33571556c12.81592889-8.15559111 29.70965333-12.23338667 47.18592-12.23338666s34.36999111 4.07779555 47.18592 12.23338666l12.23338667 7.5730489c-1.16508445 9.90321778-1.74762667 19.80643555-1.74762666 30.29219555zM699.10470222 222.63580445000002v-12.23338667c0-2.33016889 1.16508445-2.91271111 3.49525332-2.91271111h19.80643556v18.05880888h-19.80643556c-2.33016889 0-3.49525333-0.58254222-3.49525332-2.9127111zM742.21282666 226.13105778h23.30168889v-18.05880889h-23.30168889zM803.37976 226.13105778h-19.22389333v-18.05880889h19.80643555c2.33016889-0.58254222 3.49525333 1.16508445 3.49525333 4.07779556v9.90321777c0 2.91271111-1.16508445 4.07779555-4.07779555 4.07779556zM750.95095999 321.08543999999995c-80.97336889 0-147.38318222-65.82727111-147.38318221-147.38318222s65.82727111-147.38318222 147.38318221-147.38318223S897.7516 92.72888889000001 897.7516 174.28480000000002s-65.82727111 146.80064-146.80064001 146.80064z m-2.9127111-199.22944c-8.73813333-9.32067555-19.22389333-18.64135111-32.03982222-27.96202667-11.65084445-4.66033778-17.47626667 0-18.05880889 13.39847112v40.19541333c0 1.16508445-1.16508445 2.33016889-2.91271112 2.91271111H682.21097778c-4.66033778 0-6.99050667 2.91271111-7.57304889 8.73813333 0.58254222 5.82542222 2.91271111 8.73813333 7.57304889 9.32067556h23.88423111c6.40796445 0 9.90321778-4.07779555 9.90321778-12.81592889v-36.70016c1.74762667 1.16508445 4.66033778 4.07779555 8.73813333 8.15559111 2.33016889 1.74762667 4.66033778 4.07779555 8.15559111 7.57304889 4.07779555 3.49525333 8.73813333 3.49525333 13.39847111 0.58254222 4.07779555-4.66033778 4.66033778-8.73813333 1.74762667-13.39847111z m22.71914665-9.90321778c-6.40796445 0-9.32067555 2.91271111-9.32067554 8.15559111v55.92405334c0 4.66033778 2.91271111 7.57304889 9.32067554 8.15559111 5.82542222-0.58254222 8.73813333-2.91271111 9.32067557-8.15559111v-55.92405334c-0.58254222-5.24288-3.49525333-8.15559111-9.32067557-8.15559111z m55.34151113 89.71150223c-0.58254222-6.99050667-2.91271111-11.06830222-6.40796445-11.06830223 3.49525333-1.16508445 5.82542222-3.49525333 5.82542222-7.57304889v-76.31303111c-0.58254222-10.48576-13.39847111-13.39847111-39.61287112-9.90321777-6.40796445 1.74762667-9.32067555 5.82542222-8.73813333 11.06830222 1.16508445 4.66033778 5.24288 7.57304889 11.06830222 7.57304888 1.16508445-0.58254222 3.49525333-1.16508445 5.82542224-1.16508444 8.73813333-1.74762667 12.81592889 0 12.23338666 4.66033778v64.07964444c0 2.91271111 1.74762667 5.82542222 5.82542222 7.57304889H717.16351111c7.57304889-3.49525333 13.39847111-6.99050667 18.05880889-9.90321777 5.24288-4.66033778 6.40796445-9.32067555 4.07779555-13.98101334-3.49525333-4.66033778-8.15559111-4.66033778-13.98101333-1.16508444-4.66033778 2.91271111-13.39847111 6.99050667-24.46677333 13.39847111-5.24288 2.91271111-6.40796445 6.99050667-2.91271111 12.23338667h-4.07779557c-9.90321778-1.16508445-13.98101333 3.49525333-13.3984711 12.81592888v30.87473778c-0.58254222 6.99050667 4.07779555 10.48576 13.98101334 10.48576h118.2560711c8.73813333 0 13.39847111-4.07779555 13.39847112-11.06830222v-32.62236444z"  horiz-adv-x="1024" />

    
    <glyph glyph-name="xinxifabu" unicode="&#59214;" d="M874.40298462 720.90673828c-2.28817749 1.80944824-5.41433716 2.12750244-7.9637146 0.7819519L147.03445435 353.80874632999996a7.44708252 7.44708252 0 0 1-4.02511597-7.21224975 7.44378662 7.44378662 0 0 1 5.15478516-6.45831299l240.81976318-76.54476929c2.53372193-0.79595947 5.27096557-0.20269776 7.21224976 1.56555177l333.14035034 300.15335083-265.99301148-314.85140992a7.39929199 7.39929199 0 0 1-1.44854737-6.87771606 7.4215393 7.4215393 0 0 1 4.95208741-4.99822998l267.21084595-81.39303589a7.12408448 7.12408448 0 0 1 2.14480591-0.31970215c1.2722168 0 2.54608154 0.33288574 3.67492675 0.97064209a7.42236328 7.42236328 0 0 1 3.5340271 4.69006348l133.59759522 550.7998352a7.4215393 7.4215393 0 0 1-2.60623169 7.57315063zM545.02655029 180.12808227000005l-73.85037232 22.72027588c-2.23049927 0.72509766-4.6925354 0.29003906-6.57531737-1.11566162a7.42895508 7.42895508 0 0 1-3.0116272-5.9647522v-139.39096069a7.40835571 7.40835571 0 0 1 7.41412353-7.41329956 7.38446045 7.38446045 0 0 1 6.25396729 3.44668579l73.85284424 116.66821289a7.33996583 7.33996583 0 0 1 0.6946106 6.53164674 7.3828125 7.3828125 0 0 1-4.77822877 4.51785277z"  horiz-adv-x="1024" />

    
    <glyph glyph-name="yidongzhifa" unicode="&#59215;" d="M309.14244008 358.66543614c-2.96268761 4.44439352-7.40708112 9.77665186-10.66596508 15.40655494a243.24020148 243.24020148 0 0 0-40.29356539 130.35970331A251.83206797 251.83206797 0 0 0 511.79287982 754.78205646a252.12826431 252.12826431 0 0 0 253.90544235-250.35036207 245.6104964 245.6104964 0 0 0-40.58903753-134.80409682 160.57969629 160.57969629 0 0 0-17.47992933-18.66543889c-6.81468844-7.40635693-169.46848333-194.35476958-169.46848333-194.35476959a31.40477836 31.40477836 0 0 0-22.22051919-13.92484903c-7.99874962 0-14.22104537 6.5177679-20.44261693 13.92484903 0-0.29619635-183.39260815 197.91057409-186.35529578 202.05804705z m202.65043974 242.35161245a96.58463001 96.58463001 0 1 1 97.77013958-96.5853542 97.17774689 97.17774689 0 0 1-97.77013958 96.5853542z m0-146.65557145a50.07021726 50.07021726 0 1 0 50.66260993 50.07094144 50.3664136 50.3664136 0 0 0-50.66260993-50.07094144z m148.13655316-237.01790572c84.43768323-19.25783157 145.76625824-54.21841443 145.76625825-93.91886293 0-67.25395024-111.39879227-110.21328271-294.19900775-110.21328271-188.42939436 0.88858903-293.90281141 42.07074344-293.90281141 111.10259592 0 39.70044851 61.03237868 74.66030717 145.76625825 93.91813875l19.85022425-34.36746597c-71.99454009-12.44386733-118.50895285-34.36746597-118.50895286-59.25447643 0-38.81185949 118.50895285-63.69886994 247.09147811-63.69886995s247.09147811 24.88701045 247.0914781 63.69886995c0 25.1832068-46.51513696 47.10752964-118.50895285 59.25375223z"  horiz-adv-x="1024" />

    
    <glyph glyph-name="bangdingshebei" unicode="&#59216;" d="M402.944 188.416c-50.688-45.056-83.968-42.496-118.272-8.192l-38.912 41.984c-34.304 34.304-34.304 90.112 0 124.416l167.424 167.936c34.304 34.304 89.6 34.304 123.904 0l30.72-31.232c26.624-26.624 32.256-65.536 17.92-97.792l74.752-57.344c51.2 51.2 51.2 134.656 0 186.368l-92.672 93.184c-51.2 51.2-134.144 51.2-185.856 0l-229.376-230.4c-51.2-51.2-51.2-134.656 0-186.368l92.672-93.184c51.2-51.2 134.144-51.2 185.856 0l88.576 91.648-63.488 60.928-53.248-61.952z m567.296 388.096l-92.672 93.184c-51.2 51.2-134.144 51.2-185.856 0 0 0 3.584 1.024-50.176-53.248l61.44-58.88 27.648 30.208c34.304 34.304 89.6 34.304 123.904 0l30.72-31.232c34.304-34.304 34.304-90.112 0-124.416l-151.04-157.184c-34.304-34.304-89.6-34.304-123.904 0l-25.6 41.984c-53.76 39.936-37.376 49.664-32.768 76.8L483.84 461.312c-51.2-51.2-51.2-134.656 0-186.368l92.672-93.184c51.2-51.2 134.144-51.2 185.856 0l207.36 208.384c73.728 84.48 0.512 186.368 0.512 186.368z"  horiz-adv-x="1024" />

    
    <glyph glyph-name="quanjugailan" unicode="&#59217;" d="M869.376 748.032H154.112c-52.224 0-94.208-42.496-94.208-94.208v-538.624c0-52.224 42.496-94.208 94.208-94.208h715.264c52.224 0 94.208 42.496 94.208 94.208V653.312c0.512 52.224-41.984 94.72-94.208 94.72z m11.776-633.856c0-6.656-5.12-11.776-11.776-11.776H154.112c-6.656 0-11.776 5.12-11.776 11.776V653.312c0 6.656 5.12 11.776 11.776 11.776h715.264c6.656 0 11.776-5.12 11.776-11.776v-539.136zM308.736 384V504.32h130.048V587.264H226.304V384h82.432z m405.504 1.536v-120.832H583.68v-82.944h212.992V385.536h-82.432z"  horiz-adv-x="1024" />

    
    <glyph glyph-name="shuizhijiance" unicode="&#59218;" d="M688.128 405.504l209.92-312.32c12.288-18.432 19.456-43.008 19.456-66.56 0-58.368-33.792-109.568-132.096-109.568H245.76c-98.304 0-133.12 51.2-133.12 109.568 0 23.552 7.168 48.128 19.456 67.584L235.52 246.784l102.4 158.72c26.624 43.008 41.984 93.184 41.984 146.432V745.472c0 14.336-3.072 27.648-8.192 39.936h-27.648c-16.384 0-30.72 13.312-30.72 30.72v5.12c0 16.384 13.312 30.72 30.72 30.72h343.04c16.384 0 30.72-13.312 30.72-30.72v-6.144c0-16.384-13.312-30.72-30.72-30.72h-30.72c-4.096-11.264-8.192-24.576-8.192-38.912v-194.56c0-52.224 13.312-103.424 39.936-145.408z m-56.32-34.816c-33.792 53.248-50.176 116.736-50.176 181.248V784.384H447.488v-232.448c0-66.56-18.432-129.024-51.2-181.248L187.392 56.32c-5.12-8.192-8.192-19.456-8.192-29.696 0-13.312 7.168-22.528 12.288-27.648 9.216-9.216 25.6-16.384 53.248-16.384h540.672c26.624 0 41.984 7.168 51.2 15.36 6.144 5.12 14.336 15.36 14.336 28.672 0 10.24-3.072 21.504-8.192 29.696l-210.944 314.368z m139.264-356.352h-512c-15.36 0-28.672 13.312-28.672 28.672 0 6.144 2.048 12.288 5.12 16.384l169.984 257.024h217.088l172.032-257.024v1.024c3.072-4.096 5.12-11.264 5.12-16.384 0-15.36-12.288-29.696-28.672-29.696z"  horiz-adv-x="1024" />

    
    <glyph glyph-name="kongqijiance" unicode="&#59219;" d="M94.208 259.584c-16.384 0-30.208-11.264-30.208-25.088s13.312-25.088 30.208-25.088h461.824c-11.776-17.92-18.944-39.424-18.944-61.952 0-61.952 50.176-112.128 112.128-112.128 61.952 0 112.128 50.176 112.128 112.128 0 61.952-50.176 112.128-112.128 112.128-3.584 0-7.68-0.512-11.264-0.512-2.048 0.512-4.096 0.512-6.144 0.512h-537.6z m0.512 149.504c-24.064 0-30.72-11.264-30.72-25.088s6.656-25.088 30.72-25.088h722.432c4.608 0 9.216 0.512 13.824 1.024 5.632-1.024 11.264-1.024 16.896-1.024 61.952 0 112.128 50.176 112.128 112.128 0 61.952-50.176 112.128-112.128 112.128-61.952 0-112.128-50.176-112.128-112.128 0-23.04 6.656-44.544 18.944-61.952H94.72zM89.088 558.08c-13.824 0-25.088-11.264-25.088-25.088s11.264-25.088 25.088-25.088h398.336c1.536 0 2.56 0 4.096 0.512 2.56 0 5.632-0.512 8.704-0.512 61.952 0 112.128 50.176 112.128 112.128 0 61.952-50.176 112.128-112.128 112.128-61.952 0-112.128-50.176-112.128-112.128 0-23.04 7.168-44.544 18.944-62.464L89.088 558.08z"  horiz-adv-x="1024" />

    
    <glyph glyph-name="wanggemoshi" unicode="&#59220;" d="M423.424 776.192H180.736c-33.28 0-60.928-27.136-60.928-60.928v-242.688c0-33.28 27.136-60.928 60.928-60.928h242.688c33.28 0 60.928 27.136 60.928 60.928V715.264c-0.512 33.28-27.648 60.928-60.928 60.928z m-17.92-285.696H198.656V697.856h207.36c-0.512 0-0.512-207.36-0.512-207.36z m437.76 285.696h-242.688c-33.28 0-60.928-27.136-60.928-60.928v-242.688c0-33.28 27.136-60.928 60.928-60.928h242.688c33.28 0 60.928 27.136 60.928 60.928V715.264c0 33.28-27.648 60.928-60.928 60.928z m-17.408-285.696h-207.36V697.856h207.36v-207.36z m-402.432-134.656H180.736c-33.28 0-60.928-27.136-60.928-60.928v-242.688c0-33.28 27.136-60.928 60.928-60.928h242.688c33.28 0 60.928 27.136 60.928 60.928v242.688c-0.512 33.792-27.648 60.928-60.928 60.928z m-17.92-285.184H198.656v207.36h207.36v-207.36h-0.512z m437.76 285.184h-242.688c-33.28 0-60.928-27.136-60.928-60.928v-242.688c0-33.28 27.136-60.928 60.928-60.928h242.688c33.28 0 60.928 27.136 60.928 60.928v242.688c0 33.792-27.648 60.928-60.928 60.928z m-17.408-285.184h-207.36v207.36h207.36v-207.36z"  horiz-adv-x="1024" />

    
    <glyph glyph-name="shexianjiance" unicode="&#59221;" d="M320-64c-6.144 0-11.776 1.536-17.408 5.12-12.8 8.192-17.92 24.064-12.8 37.888l112.64 309.248H160.256c-12.8 0-24.576 7.68-29.696 19.968-5.12 11.776-2.048 25.6 7.168 34.816l479.744 480.256c12.288 12.288 32.768 12.288 45.056 0 12.288-12.288 12.288-32.768 0-45.056l-425.472-425.472h210.944c10.24 0 20.48-5.12 26.112-13.824 6.144-8.704 7.68-19.456 4.096-29.184L399.36 92.672l387.584 387.584h-210.944c-17.92 0-32.256 14.336-32.256 32.256 0 17.408 14.336 32.256 32.256 32.256h288.256c12.8 0 24.576-7.68 29.696-19.968 5.12-11.776 2.048-25.6-7.168-34.816L342.528-54.784c-6.144-5.632-13.824-9.216-22.528-9.216z"  horiz-adv-x="1024" />

    
    <glyph glyph-name="shipinjiankong" unicode="&#59222;" d="M888.832 353.28c-5.12-185.344-171.52-334.848-376.32-334.848-204.288 0-370.176 147.968-376.32 332.8-32.768 16.896-57.344 36.352-70.656 59.904-3.072 50.176 0 191.488 0 224.256C206.336 785.92 814.08 788.48 959.488 635.392v-224.256c-13.824-22.016-38.4-41.472-70.656-57.856zM372.224 144.896h8.704c19.456-32.768 70.656-56.32 131.072-56.32 60.928 0 112.128 23.552 131.072 56.32h8.704v182.272h-2.56c-12.8 64-69.12 112.128-136.704 112.128s-123.904-48.128-136.704-112.128h-2.56l-1.024-182.272z m517.12 459.776c-128.512 93.184-585.728 99.84-754.176 2.56 0-16.896-1.536-92.16 1.024-117.76 132.608 83.456 615.936 82.432 753.152 0V604.672zM512 299.008c38.4 0 69.632-34.304 69.632-77.312 0-42.496-31.232-77.312-69.632-77.312s-69.632 34.304-69.632 77.312c0 43.008 31.232 77.312 69.632 77.312z"  horiz-adv-x="1024" />

    
    <glyph glyph-name="shanchu" unicode="&#59223;" d="M374.784 529.408l0.512-315.392c2.048-12.8 7.68-18.432 18.944-20.992l232.96 0.512c17.92 3.072 23.552 12.8 23.04 39.936l0.512-39.424-0.512 335.36H374.784z m103.424-285.184c0-9.728-7.68-17.408-17.408-17.408s-17.408 7.68-17.408 17.408V476.672c0 9.728 7.68 17.408 17.408 17.408s17.408-7.68 17.408-17.408v-232.448z m103.424 0c0-9.728-7.68-17.408-17.408-17.408s-17.408 7.68-17.408 17.408V476.672c0 9.728 7.68 17.408 17.408 17.408s17.408-7.68 17.408-17.408v-232.448zM971.264 424.96c-5.632 68.096-26.112 131.584-59.904 190.464-19.968 34.816-44.544 66.048-73.216 95.232-33.792 33.792-71.68 61.952-114.176 83.968-44.544 23.552-92.16 38.912-142.336 46.592-31.744 4.608-63.488 6.656-95.232 4.608-43.52-2.56-86.528-10.752-128-25.088-50.176-17.92-96.256-43.008-137.216-76.288-45.056-37.376-82.944-81.408-112.128-132.608-27.648-49.152-46.08-101.376-54.272-156.672-5.632-36.864-7.168-73.728-4.096-111.616 4.608-56.32 19.456-110.08 44.032-161.28 17.92-37.376 40.448-71.168 67.584-102.4 41.472-47.616 90.112-84.992 146.944-112.128 42.496-20.992 87.552-34.816 134.656-41.472 12.8-2.048 26.112-3.584 38.912-4.096 1.024 0 2.048 0 3.072-1.024h50.688c5.12 2.048 10.24 1.536 15.872 2.048 68.096 6.144 131.584 26.112 190.464 59.904 34.816 19.968 66.56 44.544 95.744 73.216 33.792 33.792 61.44 71.168 83.456 113.664 23.552 45.056 38.912 92.16 47.104 142.336 2.56 13.824 4.096 27.136 4.608 41.472 0 1.536 0 3.072 1.024 4.096v50.688c-3.584 5.12-3.072 10.752-3.584 16.384zM706.56 529.408h-22.016l1.024-330.24c-0.512-22.528-16.384-40.96-38.912-40.96h-20.48l-225.28-0.512v0.512h-20.48c-22.016 0-38.4 17.408-39.424 38.912l-0.512 332.288h-23.552c-11.264 0-18.944 6.144-18.944 17.408s7.68 15.872 18.944 15.872h170.496v24.064c0 13.312 11.776 24.064 25.6 24.064s25.6-10.752 25.6-24.064v-24.064H665.6c0.512 0 1.536 0.512 2.048 0.512s1.536-0.512 2.048-0.512h36.864c11.264 0 20.48-4.608 20.48-15.872s-9.216-17.408-20.48-17.408z"  horiz-adv-x="1024" />

    
    <glyph glyph-name="bianji" unicode="&#59224;" d="M442.368 295.424l39.424 11.264-28.672 29.696zM672.768 553.472c-3.584 3.584-9.728 4.096-13.312 1.024l-20.48-20.992 33.28-34.816 20.48 20.992c1.536 1.536 2.048 3.584 2.56 5.632 0 2.56-1.024 5.632-3.072 7.68l-19.456 20.48zM469.504 357.888l33.28-34.816 148.992 154.112-33.28 34.816zM971.264 424.96c-5.632 68.096-26.112 131.584-59.904 190.464-19.968 34.816-44.544 66.048-73.216 95.232-33.792 33.792-71.68 61.952-114.176 83.968-44.544 23.552-92.16 38.912-142.336 46.592-31.744 4.608-63.488 6.656-95.232 4.608-43.52-2.56-86.528-10.752-128-25.088-50.176-17.92-96.256-43.008-137.216-76.288-45.056-37.376-82.944-81.408-112.128-132.608-27.648-49.152-46.08-101.376-54.272-156.672-5.632-36.864-7.168-73.728-4.096-111.616 4.608-56.32 19.456-110.08 44.032-161.28 17.92-37.376 40.448-71.168 67.584-102.4 41.472-47.616 90.112-84.992 146.944-112.128 42.496-20.992 87.552-34.816 134.656-41.472 12.8-2.048 26.112-3.584 38.912-4.096 1.024 0 2.048 0 3.072-1.024h50.688c5.12 2.048 10.24 1.536 15.872 2.048 68.096 6.144 131.584 26.112 190.464 59.904 34.816 19.968 66.56 44.544 95.744 73.216 33.792 33.792 61.44 71.168 83.456 113.664 23.552 45.056 38.912 92.16 47.104 142.336 2.56 13.824 4.096 27.136 4.608 41.472 0 1.536 0 3.072 1.024 4.096v50.688c-3.584 5.12-3.072 10.752-3.584 16.384z m-250.88-205.824c0-25.6-19.968-46.08-44.544-46.08H345.6c-24.576 0-44.544 20.48-44.544 46.08V548.864c0 25.6 19.968 46.08 44.544 46.08h211.968c7.68 0 14.336-6.656 14.336-14.848 0-8.192-6.656-14.848-14.336-14.848h-209.92c-10.24 0-18.432-8.704-18.432-18.944v-325.12c0-10.24 8.192-18.944 18.432-18.944h325.632c10.24 0 18.432 8.704 18.432 18.944v199.68c0 8.192 6.656 14.848 14.336 14.848 7.68 0 14.336-6.656 14.336-14.848v-201.728z m-7.168 280.064L506.88 285.696c-0.512-0.512-1.536-1.024-2.56-1.024h-0.512l-77.312-22.016c-1.024-0.512-2.56-0.512-3.584-0.512-3.584 0-6.656 1.536-9.216 4.096-3.584 3.584-4.608 8.704-3.584 13.312l20.992 80.384c0 0.512 0.512 1.024 0.512 1.024s0 0.512 0.512 0.512l206.848 213.504c6.144 6.144 14.336 9.728 23.552 9.728 10.24 0 20.48-4.608 28.16-12.288l19.456-19.968c7.68-7.68 12.288-18.432 12.288-29.184 0.512-9.216-3.072-17.92-9.216-24.064z"  horiz-adv-x="1024" />

    
    <glyph glyph-name="chengyuan" unicode="&#59225;" d="M971.264 424.96c-5.632 68.096-26.112 131.584-59.904 190.464-19.968 34.816-44.544 66.048-73.216 95.232-33.792 33.792-71.68 61.952-114.176 83.968-44.544 23.552-92.16 38.912-142.336 46.592-31.744 4.608-63.488 6.656-95.232 4.608-43.52-2.56-86.528-10.752-128-25.088-50.176-17.92-96.256-43.008-137.216-76.288-45.056-37.376-82.944-81.408-112.128-132.608-27.648-49.152-46.08-101.376-54.272-156.672-5.632-36.864-7.168-73.728-4.096-111.616 4.608-56.32 19.456-110.08 44.032-161.28 17.92-37.376 40.448-71.168 67.584-102.4 41.472-47.616 90.112-84.992 146.944-112.128 42.496-20.992 87.552-34.816 134.656-41.472 12.8-2.048 26.112-3.584 38.912-4.096 1.024 0 2.048 0 3.072-1.024h50.688c5.12 2.048 10.24 1.536 15.872 2.048 68.096 6.144 131.584 26.112 190.464 59.904 34.816 19.968 66.56 44.544 95.744 73.216 33.792 33.792 61.44 71.168 83.456 113.664 23.552 45.056 38.912 92.16 47.104 142.336 2.56 13.824 4.096 27.136 4.608 41.472 0 1.536 0 3.072 1.024 4.096v50.688c-3.584 5.12-3.072 10.752-3.584 16.384z m-217.6-239.616h-2.048c-2.048 0-4.096 0.512-6.144 1.024-2.048-0.512-4.096-1.024-6.144-1.024h-465.92c-9.216 0-16.896 7.68-16.896 16.896 0 78.336 47.104 147.968 116.736 178.688-28.672 23.552-46.592 58.88-46.592 97.28 0 69.12 56.32 125.44 125.44 125.44s125.44-56.32 125.44-125.44c0-37.888-17.408-73.728-46.08-97.28 50.688-22.528 90.624-66.048 107.52-119.808 3.072-9.216-2.048-18.432-11.264-21.504-1.536-0.512-3.584-1.024-5.12-1.024-7.168 0-13.824 4.608-16.384 11.776-17.408 55.296-63.488 97.28-120.32 109.056h-0.512-0.512-0.512c-2.048 0.512-3.584 1.536-5.12 2.56l-0.512 0.512s-0.512 0-0.512 0.512l-0.512 0.512-0.512 0.512s0 0.512-0.512 0.512l-0.512 0.512-0.512 0.512s0 0.512-0.512 0.512c0 0 0 0.512-0.512 0.512 0 0 0 0.512-0.512 0.512v0.512 0.512 0.512 0.512 0.512 0.512 0.512 0.512 0.512 0.512 0.512c-0.512 3.584 0 7.168 1.024 10.24 0 0 0 0.512 0.512 0.512 0 0 0 0.512 0.512 0.512 1.024 2.048 3.072 4.096 5.12 5.632 0 0 0.512 0 0.512 0.512 0 0 0.512 0 0.512 0.512 1.024 0.512 2.56 1.024 3.584 1.536 35.328 13.312 58.88 47.616 58.88 84.992 0 50.176-40.96 91.136-91.136 91.136s-91.136-40.96-91.136-91.136c0-37.888 24.064-72.192 59.904-85.504 7.168-2.56 11.264-9.216 11.264-16.384 0-7.68-5.632-14.848-13.312-16.896-68.096-14.336-119.296-72.192-126.976-140.288h439.296c-14.848 62.976-58.368 112.64-112.64 125.952-9.216 2.048-14.848 11.776-12.288 20.992 2.048 7.68 8.192 12.8 15.872 12.8 28.16 9.728 47.104 35.328 47.104 63.488 0 31.744-24.576 59.904-57.856 66.56-9.216 1.536-15.36 10.752-13.312 19.968 1.536 9.216 10.752 15.36 19.968 13.312 49.664-9.728 86.016-51.712 86.016-99.84 0-30.72-14.848-59.392-38.912-78.336 54.784-29.184 94.72-89.088 104.448-159.744-1.536-8.192-8.192-16.896-17.408-17.92z"  horiz-adv-x="1024" />

    
    <glyph glyph-name="weixinfensi" unicode="&#59226;" d="M839.68 288.256c-41.472-0.512-70.144-20.48-88.064-43.008-17.92 22.528-46.592 43.008-89.088 43.008-28.16 0-51.2-9.216-69.12-27.136-32.768-32.768-33.28-81.92-32.768-83.456-1.024-5.12-17.92-123.392 180.224-222.208 3.072-1.536 7.168-2.56 10.752-2.56 4.096 0 7.68 1.024 11.264 3.072 119.808 63.488 181.76 140.288 180.224 224.256 0 43.52-27.136 108.032-103.424 108.032z m-88.064 265.728c0 145.408-118.272 263.168-263.168 263.168s-263.68-117.76-263.68-263.168c0-102.4 58.88-191.488 144.896-235.008-157.696-50.688-288.256-194.048-288.256-339.968 0-13.312 10.752-24.064 24.064-24.064s24.064 10.752 24.064 24.064c0 154.112 181.248 311.296 358.912 311.296 144.896 0.512 263.168 118.272 263.168 263.68z m-263.168-215.552c-118.784 0-215.552 96.768-215.552 215.552s96.768 215.552 215.552 215.552 215.552-96.768 215.552-215.552-96.768-215.552-215.552-215.552z"  horiz-adv-x="1024" />

    
    <glyph glyph-name="tongzhigonggao" unicode="&#59227;" d="M734.018 454.936C625.227 689.078 568.635 778.019 390.893 774.298c-63.316-1.289-48.145 45.903-96.433 28.009-48.196-17.893-6.822-44.09-56.165-84.6C99.828 604 112.568 498.835 176.797 248.182c27.054-105.593-65.232-110.747-28.727-213.047 26.671-74.631 223.261-105.883 430.632-28.965 207.418 76.965 338.115 229.707 311.443 304.328-36.502 102.353-110.276 45.861-156.127 144.438zM556.23 69.248c-185.234-68.707-337.449-28.344-343.888-10.354-11.072 31.016 59.788 134.37 271.551 212.956 211.759 78.59 329.955 49.436 342.314 14.841 7.297-20.472-84.695-148.683-269.977-217.443zM496.678 235.97c-96.811-35.931-164.092-77.017-207.703-113.997 30.68-27.863 88.129-34.639 145.337-13.406 72.865 26.957 117.668 89.039 99.971 138.568l-0.766 1.714c-11.974-3.91-24.238-8.154-36.839-12.879z"  horiz-adv-x="1024" />

    
    <glyph glyph-name="xiaoxifabu" unicode="&#59228;" d="M327.68 100.352l-105.472-51.2 11.776 112.128c1.536 14.336-5.632 28.672-16.896 38.912-67.072 60.416-109.056 142.848-109.056 226.304 0 176.64 164.864 313.344 367.616 313.344 90.112 0 168.96-24.064 235.008-75.264 1.536-1.536 30.208-16.384 47.616 0.512 17.92 17.408-0.512 38.4-3.072 40.448-22.016 17.408-46.08 32.256-71.168 45.056-64.512 33.28-137.728 48.64-211.456 48.64-56.32 0-110.592-9.728-162.304-28.672-49.664-18.432-94.72-45.056-133.12-78.848C138.24 657.408 107.008 617.984 86.016 573.44c-22.016-46.08-33.792-95.744-33.792-146.432 0-50.176 11.264-98.816 33.28-144.896 20.48-43.008 50.176-81.408 87.04-115.2 0 0 7.68-5.12 8.704-14.848 1.024-9.728-14.848-131.072-15.36-135.68-0.512-3.072-1.024-9.216-2.048-16.384-0.512-6.144-2.048-11.776 0.512-17.408 1.024-3.072 3.072-6.144 7.168-9.216 3.072-2.56 7.68-4.608 12.288-4.608 3.584-0.512 7.168 0.512 10.24 1.536 20.48 10.24 165.888 86.528 165.888 86.528s19.456 14.336 7.168 35.328c-11.776 16.384-29.184 14.336-39.424 8.192z m-147.968 50.688l-15.36-135.68c0.512 5.12 15.872 125.44 15.36 135.68z m702.464-52.736c-1.536 7.168 0.512 14.336 5.632 19.456 52.224 53.76 83.968 124.416 83.968 201.728 0 167.424-148.48 303.616-331.264 303.616-183.296 0-331.264-135.68-331.264-303.616 0-167.424 148.48-303.616 331.264-303.616 36.352 0 70.656 5.632 103.424 15.36 2.048 0.512 4.608 1.024 6.656 1.024 3.072 0 6.656-0.512 9.728-2.048l113.152-54.784c3.072-1.536 6.656-2.56 10.24-2.56 13.312 0 25.088 12.288 22.016 26.624l-23.552 98.816z m-360.448 177.152c-18.432 0-33.28 14.848-33.28 33.28s14.848 33.28 33.28 33.28 33.28-14.848 33.28-33.28c-0.512-18.432-15.36-33.28-33.28-33.28z m135.168 0c-18.432 0-33.28 14.848-33.28 33.28s14.848 33.28 33.28 33.28 33.28-14.848 33.28-33.28-14.848-33.28-33.28-33.28z m135.68 0c-18.432 0-33.28 14.848-33.28 33.28s14.848 33.28 33.28 33.28 33.28-14.848 33.28-33.28-14.848-33.28-33.28-33.28z"  horiz-adv-x="1024" />

    
    <glyph glyph-name="xieguan" unicode="&#59229;" d="M971.05408 424.67328c-5.76 68.16256-25.92256 131.52256-60.00128 190.56128-20.16256 34.56-44.64128 66.24256-72.96 95.04256-33.60256 33.60256-71.52128 61.92128-114.24256 83.99872-44.64128 23.52128-92.16 38.88128-142.08 46.56128-31.68256 4.80256-63.36 6.72256-95.04256 4.80256-43.67872-2.40128-86.4-10.56256-128.15872-24.96A464.0256 464.0256 0 0 1 221.2864 744.36096c-45.59872-37.44256-83.52256-81.60256-112.32256-132.48-27.84256-48.96256-46.08-101.27872-54.24128-156.48256-5.76-36.96128-7.19872-73.92256-3.84-111.36 4.80256-56.16128 19.68128-109.92128 44.16-161.28 17.76128-37.44256 40.32-71.04 67.68128-102.24128 41.28256-47.51872 90.24-84.96128 146.88256-112.32256a424.46336 424.46336 0 0 1 134.4-41.28256c12.95872-1.92 25.92256-3.35872 38.88128-4.32128 0.96256 0 1.92 0 2.88256-0.96256h50.88256c5.27872 1.92 10.08128 1.43872 15.84128 1.92 68.16256 6.24128 131.52256 25.92256 190.56128 60.00128 35.04128 20.16256 66.71872 44.64128 95.51872 72.96 33.60256 33.60256 61.44 71.04 83.52256 113.76128 23.52128 45.12256 38.88128 92.16 47.04256 142.56128 2.40128 13.92128 3.84 27.36128 4.80256 41.28256 0 1.43872 0 2.88256 0.96256 3.84V408.832c-3.85024 4.80256-3.37408 10.56256-3.85024 15.84128z m-348.94848 148.74112h105.28768v-105.28768h-28.34944V545.07008h-76.93824v28.34432z m105.2928-129.96096v-48.47104h-28.34944v48.47104h28.34944zM450.23232 573.41952h28.04736v-28.34432h-28.04736v28.34432zM318.52544 491.78112c-23.26528 13.0304-38.15936 38.15936-38.15936 67.01568a77.06112 77.06112 0 0 0 77.25568 77.25056A77.056 77.056 0 0 0 434.87232 558.7968c0-28.85632-15.8208-53.05344-38.15936-67.01568 40.94976-14.88896 72.59648-51.18976 79.11424-96.79872H238.48448c6.51264 45.60384 38.15424 81.90464 80.04096 96.79872z m-4.5312-118.76352v-105.28768H285.6448v105.28768h28.34944z m76.93824-240.6912H285.6448v105.28768h28.34944v-76.94336h76.93824v-28.34432z m132.97152 0H418.61632v28.34432h105.28768v-28.34432z m-26.45504 412.74368v28.34432h105.28256v-28.34432H497.44896z m50.72384-413.11232c6.51776 45.60896 38.15936 81.90976 80.04096 96.79872-23.26528 13.0304-38.15936 38.15936-38.15936 67.01568a77.06112 77.06112 0 0 0 77.25568 77.25056 77.06112 77.06112 0 0 0 77.25056-77.25056c0-28.85632-15.8208-53.05344-38.15936-67.01568 40.94976-14.88896 72.59648-51.19488 79.11424-96.79872h-237.34272z"  horiz-adv-x="1024" />

    
    <glyph glyph-name="xiajiang" unicode="&#59230;" d="M539.36128-42.69568l302.35136 301.42976a35.8912 35.8912 0 0 1 10.5984 25.59488 36.25472 36.25472 0 0 1-10.71104 25.80992c-13.14304 13.12256-33.70496 14.4128-48.13312 3.08736l-245.99552-245.16096V784.63488c0 19.99872-16.35328 36.28544-36.46464 36.28544s-36.44416-16.2816-36.44416-36.28544v-716.55424l-251.8016 251.09504c-15.0272 7.552-32.37888 5.20704-43.68896-6.06208-6.75328-6.75328-10.45504-15.88224-10.45504-25.71776 0-10.81856 4.35712-21.1456 12.26752-29.06112l20.09088-20.11136 55.38304-55.1936 10.23488-10.4192 216.04864-215.26528c7.168-7.13216 16.98816-10.74688 27.66336-10.21952l0.70656 0.03584 0.72704-0.03584c10.68544-0.52736 20.5056 3.08224 27.6224 10.17856z"  horiz-adv-x="1027" />

    
    <glyph glyph-name="shangsheng" unicode="&#59231;" d="M481.567 810.69L179.215 509.26a35.886 35.886 0 0 1-10.598-25.594c0-9.749 3.81-18.913 10.711-25.81 13.143-13.123 33.705-14.413 48.133-3.087l245.996 245.16V-16.64c0-19.999 16.353-36.285 36.464-36.285s36.444 16.281 36.444 36.285V699.914L798.167 448.82c15.027-7.552 32.379-5.207 43.689 6.062 6.753 6.754 10.455 15.883 10.455 25.718 0 10.819-4.357 21.146-12.267 29.061l-20.091 20.112-55.383 55.193-10.235 10.42L538.286 810.65c-7.168 7.132-16.988 10.746-27.663 10.22l-0.707-0.037-0.727 0.036c-10.685 0.527-20.505-3.082-27.622-10.178z"  horiz-adv-x="1027" />

    
    <glyph glyph-name="zhongdianjiankong" unicode="&#59232;" d="M380.928 685.568H448v-67.072h-67.072z m-136.192 0h67.072v-67.072h-67.072z m0-128h67.072v-67.072h-67.072z m136.192-91.648H448v-67.072h-67.072z m-91.136-108.544c2.56 2.048 2.56 6.144 0 8.192l-114.176 89.088c-1.536 1.024-3.072 1.536-5.632 1.536v-49.152H24.064c-7.168 0-12.8-5.632-12.8-12.8v-66.56c0-7.168 5.632-12.8 12.8-12.8h146.432v-49.152c1.536 0 4.096 0.512 5.632 1.536l113.664 90.112zM188.416 693.76c0 22.016 17.92 39.424 39.424 39.424H473.6c17.92 0 32.256-14.848 32.256-32.256v-118.784c19.968 16.384 44.544 28.16 71.68 32.256v81.92c0 59.904-48.64 108.544-108.544 108.544h-243.2c-59.904 0-108.032-48.64-108.032-108.544v-206.848h71.68c-1.024 0-1.024 204.288-1.024 204.288zM117.76 232.448h337.92v-71.68H117.76z m735.232-282.112c-94.208 0-169.984 75.776-169.984 169.984s76.288 169.984 169.984 169.984 169.984-76.288 169.984-169.984c0-93.696-75.776-169.984-169.984-169.984z m0 302.592c-73.216 0-132.608-59.392-132.608-132.608 2.048-73.216 64-131.072 136.704-128.512C926.72-6.144 983.04 50.176 985.6 120.32c0 73.216-59.392 132.608-132.608 132.608zM826.368 217.6h59.904l-14.848-153.088h-30.208L826.368 217.6z m9.728-173.056h41.472v-29.696h-41.472v29.696zM638.976 434.688h67.072v-67.072h-67.072z m0-195.072h43.52c7.168 9.216 14.848 17.92 23.552 26.624v40.448h-67.072v-67.072zM641.024 116.224c0 17.92 2.048 36.352 7.168 52.736H565.76V462.336c0 15.872 14.848 28.672 33.792 28.672h145.92c17.92 0 33.792-12.8 33.792-28.672v-151.04c18.944 6.656 38.4 10.752 58.88 12.288V450.048c0 58.368-47.104 105.472-105.472 105.472H613.888c-58.368 0-105.472-47.104-105.472-105.472v-320.512H29.696c-9.728 0-17.92-8.192-17.92-17.92v-81.408c0-9.728 8.192-17.92 17.92-17.92H670.72c-18.944 29.696-29.696 66.048-29.696 103.936z"  horiz-adv-x="1024" />

    
    <glyph glyph-name="xieguanyuanguanli" unicode="&#59233;" d="M531.968 287.232c16.896-2.56 33.792 8.192 36.864 25.6 3.072 17.408-8.192 33.792-25.6 36.864-24.064 4.096-48.128 6.656-71.168 7.168-132.608 1.536-245.76-37.888-325.12-116.736C65.536 159.744 20.48 43.52 20.48-88.064c0-17.408 14.336-31.744 31.744-31.744s31.744 14.336 31.744 31.744c0 114.688 37.888 215.04 107.52 283.136 68.096 67.072 164.864 100.352 280.064 98.304 18.944-0.512 39.424-2.56 60.416-6.144zM859.136 33.28c-17.408-3.072-28.672-19.456-25.6-36.864 5.12-27.136 7.68-55.808 7.68-84.992 0-17.408 14.336-31.744 31.744-31.744s31.744 14.336 31.744 31.744c0 32.768-3.072 65.024-8.704 96.256-3.584 17.408-20.48 28.672-36.864 25.6zM446.976 381.44c137.216 0 248.832 111.616 248.832 248.832S584.192 879.616 446.976 879.616 198.144 767.488 198.144 630.272s111.616-248.832 248.832-248.832z m0 434.688c102.4 0 185.856-83.456 185.856-185.856s-83.456-185.856-185.856-185.856S261.12 528.384 261.12 630.272s83.456 185.856 185.856 185.856zM880.64 161.28v44.544l-38.912 8.192c-2.56 9.728-6.656 19.456-11.776 28.16l22.016 33.28-31.232 31.232-33.28-22.016c-8.704 5.12-17.92 9.216-27.648 11.776l-7.68 39.424h-44.032l-7.68-39.424c-9.728-2.56-18.944-6.656-27.648-11.776l-33.28 22.016-31.232-31.232 22.016-33.28c-5.12-8.704-8.704-18.432-11.776-28.16l-38.912-8.192v-44.544l38.912-8.192c2.56-9.728 6.656-19.456 11.776-28.16l-22.016-33.28 31.232-31.232 33.28 22.016c8.704-5.12 17.92-9.216 27.648-11.776l7.68-39.424h44.032l7.68 39.424c9.728 2.56 18.944 6.656 27.648 11.776l33.28-22.016 31.232 31.232-22.016 33.28c5.12 8.704 8.704 18.432 11.776 28.16l38.912 8.192z m-150.528-30.208c-28.672 0-52.224 23.552-52.224 52.736 0 29.184 23.552 52.736 52.224 52.736s52.224-23.552 52.224-52.736c0-29.184-23.552-52.736-52.224-52.736z"  horiz-adv-x="1024" />

    
    <glyph glyph-name="zhifarenyuanguanli" unicode="&#59234;" d="M511.229 236.12c17.162 0 31.077-13.92 31.077-31.077 0-17.165-13.916-31.076-31.077-31.076-17.162 0-31.075 13.911-31.075 31.076-0.008 17.158 13.912 31.077 31.075 31.077zM511.229-63.489s-78.215 29.484-78.215 71.742c0 29.902 29.555 97.402 52.336 144.982 7.797-3.903 16.564-6.154 25.879-6.154 9.313 0 18.079 2.25 25.875 6.154 22.78-47.58 52.337-115.08 52.337-144.982 0-42.258-78.212-71.742-78.212-71.742zM870.899-63.129c-20.074 0-36.396 16.336-36.396 36.408 0 101.596-46.371 195.294-127.208 257.07-15.955 12.194-19.009 35.095-6.82 51.048 12.145 15.929 35.04 19.01 51.005 6.83l0.007-0.018c99.027-75.677 155.82-190.46 155.82-314.93 0-20.074-16.328-36.408-36.408-36.408zM511.229 831.83c-147.571 0-267.626-120.064-267.626-267.637 0-90.13 46.393-174.209 120.8-223.317C215.939 281.3 115.148 135.139 115.148-26.722c0-20.073 16.332-36.408 36.406-36.408s36.4 16.335 36.4 36.408c0 178.259 145.025 323.292 323.276 323.286 147.574 0 267.632 120.055 267.632 267.629S658.803 831.829 511.23 831.829z m0-462.453c-107.42 0-194.815 87.398-194.815 194.822 0 107.42 87.395 194.818 194.815 194.818 107.428 0 194.824-87.398 194.824-194.818 0-107.424-87.396-194.822-194.824-194.822z"  horiz-adv-x="1024" />

    
    <glyph glyph-name="pianquguanli" unicode="&#59235;" d="M971.264 653.312c3.584-6.656 6.144-13.824 8.192-20.992 4.096-12.8 6.144-26.112 5.632-39.424v-584.192c0-35.84-14.336-70.656-39.424-96.256-26.112-25.6-60.928-39.936-97.28-39.936H174.08c-75.264 1.024-135.68 61.44-136.704 136.704v583.68c0 35.84 14.848 70.656 40.96 95.744 25.088 25.6 59.904 40.448 95.744 39.936h328.704c12.288 35.84 32.256 68.096 59.392 94.208 94.208 93.184 246.784 91.136 339.456-3.584 43.52-44.544 68.096-104.448 68.608-166.912l1.024 1.024zM491.52 655.872H174.08c-35.328 0-63.488-28.672-63.488-63.488v-584.192c0-16.896 6.656-33.28 18.944-45.056 12.288-10.752 28.16-16.384 44.544-15.872h675.84c35.328 0 63.488 28.672 63.488 63.488V499.2c-25.088-28.672-56.32-51.2-91.136-65.536l-73.216-89.088a22.272 22.272 0 0 0-30.72 0L645.12 433.152c-92.16 35.84-152.576 123.904-153.6 222.72z m379.392 138.752c-36.864 36.864-86.528 57.856-138.752 57.856-51.2-0.512-100.352-20.48-137.216-56.32-36.864-37.376-56.832-88.064-55.296-140.288-1.024-80.896 48.128-153.6 123.392-183.296 3.584-2.048 6.656-4.608 9.728-7.168L732.16 392.192l59.904 73.216c2.56 3.072 5.632 5.632 9.728 7.168 37.376 14.336 69.632 39.424 92.16 73.216 53.76 77.824 44.032 182.784-22.528 249.856l-0.512-1.024zM583.68 379.392c8.192 8.704 22.528 8.704 31.232 0.512l0.512-0.512c8.192-8.704 8.192-22.016 0-30.72l-60.416-60.416 124.928-122.88 139.264 139.264c8.192 8.704 22.528 8.704 31.232 0.512l0.512-0.512c8.192-8.704 8.192-22.016 0-30.72L711.68 134.656l46.592-46.592c8.704-8.192 8.704-22.528 0.512-31.232l-0.512-0.512a22.272 22.272 0 0 0-30.72 0l-60.416 61.44-143.36 139.264-251.392-251.392c-8.192-8.704-21.504-8.704-29.696-0.512l-0.512 0.512a22.272 22.272 0 0 0 0 30.72l251.392 251.392-104.96 104.448-167.936-167.936c-7.68-8.704-20.992-9.216-29.696-1.536l-1.536 1.536c-8.192 8.704-8.192 22.528 0 31.232l167.936 167.936-105.984 107.52c-8.704 8.192-8.704 21.504-0.512 29.696l0.512 0.512c8.192 8.704 22.528 8.704 31.232 0.512l0.512-0.512 120.32-121.856 119.808-119.808 60.416 60.416v-0.512zM837.632 686.08c-2.56 9.216-6.144 18.432-10.752 26.624l20.48 31.744-29.184 29.696-31.232-20.992c-8.192 4.608-16.896 8.704-26.112 10.752l-7.68 36.864H711.68l-7.68-36.864c-9.216-2.56-17.92-6.144-26.112-10.752l-31.232 20.992-29.184-29.696 20.48-31.744c-4.608-8.192-8.192-17.408-10.752-26.624l-36.864-7.68v-41.984l36.864-7.68c2.56-9.216 6.144-18.432 10.752-26.624l-20.48-31.744 29.184-29.696 31.232 20.992c8.192-4.608 16.896-8.704 26.112-10.752l7.68-36.864h41.472l7.68 36.864c9.216 2.56 17.92 6.144 26.112 10.752l31.232-20.992 29.184 29.696-20.48 31.744c4.608 8.192 8.192 17.408 10.752 26.624l36.864 7.68v41.984l-36.864 7.68zM732.16 607.744c-27.136 0-49.152 22.528-49.152 49.664s22.016 49.664 49.152 49.664 49.152-22.528 49.152-49.664-22.016-49.664-49.152-49.664z"  horiz-adv-x="1024" />

    
    <glyph glyph-name="keshiguanli" unicode="&#59236;" d="M834.647 494.078V650.411c0 14.128-11.454 25.582-25.583 25.582s-25.582-11.454-25.582-25.582v-156.13h-51.168V601.414l0.001 0.04c0 14.128-11.454 25.582-25.582 25.582s-25.583-11.454-25.583-25.582h-0.001V494.28H399.738v35.266H527.65c28.258 0 51.165 22.908 51.165 51.165V734.208c0 28.258-22.907 51.165-51.165 51.165H220.659c-28.257 0-51.165-22.907-51.165-51.165v-153.496c0-28.257 22.908-51.165 51.165-51.165h127.913v-35.266H214.314c-56.517 0-102.331-45.815-102.331-102.33v-332.34c0-42.385 34.362-76.747 76.748-76.747 42.387 0 76.748 34.362 76.748 76.748h0.215V320.555c0 11.303 9.162 20.466 20.466 20.466h294.712c11.304 0 20.466-9.163 20.466-20.466V8.21c0-14.129 11.454-25.582 25.583-25.582h201.376c56.516 0 102.33 45.814 102.33 102.33V391.95c0 54.382-42.423 98.848-95.98 102.128z m-593.522 86.633c-11.303 0-20.466 9.163-20.466 20.466V713.741c0 11.303 9.163 20.466 20.466 20.466h266.06c11.303 0 20.466-9.163 20.466-20.466v-112.564c0-11.303-9.163-20.466-20.466-20.466h-266.06z m638.338-475.288c0-39.56-32.07-71.631-71.632-71.631H652.504v307.23c0 28.257-22.908 51.164-51.166 51.164H265.694c-28.258 0-51.166-22.907-51.166-51.165v-281.41h-0.214c0-14.128-11.454-25.582-25.583-25.582s-25.583 11.454-25.583 25.583v311.87c0 39.562 32.07 71.632 71.632 71.632H807.83c39.561 0 71.632-32.07 71.632-71.631v-266.06z"  horiz-adv-x="1024" />

    
    <glyph glyph-name="danxuankuangweixuan" unicode="&#59237;" d="M512 830.464c-247.296 0-448-200.704-448-448s200.704-448 448-448 448 200.704 448 448-200.704 448-448 448z m0-832c-211.968 0-384 172.032-384 384s172.032 384 384 384 384-172.032 384-384-172.032-384-384-384z"  horiz-adv-x="1024" />

    
    <glyph glyph-name="zhongdianjiankong1" unicode="&#59238;" d="M512 846.848C256.512 846.848 49.152 639.488 49.152 384s207.36-462.848 462.848-462.848 462.848 207.36 462.848 462.848S767.488 846.848 512 846.848z m36.352-657.92c0-19.968-16.384-35.84-35.84-35.84s-35.84 16.384-35.84 35.84V225.28c0 19.968 16.384 35.84 35.84 35.84s35.84-16.384 35.84-35.84v-36.352z m0.512 145.408c0-19.968-16.384-35.84-35.84-35.84-19.968 0-35.84 16.384-35.84 35.84V608.768c0 19.968 16.384 35.84 35.84 35.84s35.84-16.384 35.84-35.84v-274.432z"  horiz-adv-x="1024" />

    
    <glyph glyph-name="yichu" unicode="&#59239;" d="M512 846.848C256.512 846.848 49.152 639.488 49.152 384c0-255.488 207.36-462.848 462.848-462.848s462.848 207.36 462.848 462.848c0 255.488-207.36 462.848-462.848 462.848zM411.136 142.848H349.184c-43.008 0-77.312 34.816-77.824 77.824l32.256 328.704c0 40.96 34.816 75.776 77.312 75.776h262.656c43.008 0 77.312-34.816 77.312-77.312l8.192-83.968-34.304-3.584-8.192 85.504c0 25.6-19.456 44.544-43.008 44.544H380.928c-23.552 0-43.008-19.456-43.008-43.008l-32.256-328.704c0-22.016 19.456-41.472 43.52-41.472h62.464v-34.304z m217.6 3.584v76.8H482.304v65.024h146.432v76.8l123.904-109.568-123.904-109.056z"  horiz-adv-x="1024" />

    
    <glyph glyph-name="gaojingshezhi" unicode="&#59240;" d="M640.512 363.52L454.144 811.52H390.144l-320-768h448V107.52H160.768l261.12 627.2 154.624-371.2h64zM454.144 491.52H390.144v-192h64V491.52z m-64-320h64V235.52H390.144v-64zM792.064 313.344c22.016-7.168 41.472-18.432 58.368-33.28-7.168-17.92-5.632-38.4 4.096-55.296 10.24-17.408 27.648-28.672 46.08-31.232 4.608-22.016 4.608-45.056 0-67.072-19.456-3.072-36.352-14.336-46.592-31.232-9.728-16.896-11.264-37.376-4.096-55.296-16.896-14.848-36.864-26.624-57.856-33.28-12.288 14.848-30.72 23.552-49.664 23.552-19.968 0-37.888-9.216-49.664-23.552-21.504 7.168-41.472 18.432-58.368 33.28 7.168 17.92 5.632 38.4-4.096 55.296-9.728 16.896-26.624 28.672-46.08 31.232-4.608 22.016-4.608 45.056 0 67.072 18.432 3.072 35.84 13.824 46.08 31.232 10.24 17.408 10.752 37.376 4.096 55.296 16.896 14.848 36.352 26.624 58.368 33.792 11.776-14.336 29.696-24.064 49.664-24.064s37.376 9.216 49.664 23.552m-99.84 50.176c-5.12 0-10.24-1.024-15.36-2.56-28.16-9.216-54.272-24.064-76.288-44.032-15.36-13.824-20.48-35.328-13.312-54.272 1.536-4.096 1.536-8.704-1.024-12.8s-6.144-6.656-10.752-7.168c-20.48-3.072-36.864-18.944-40.96-38.912-6.144-28.672-6.144-58.368 0-87.552 4.096-20.48 20.48-35.84 40.96-38.912 2.56-0.512 7.68-2.048 10.752-7.168 2.048-4.096 2.56-8.704 1.024-12.8-7.168-19.456-2.048-40.96 13.312-54.784 22.016-19.968 47.616-34.304 76.288-43.52 19.456-6.144 40.96 0 53.76 15.872 2.56 3.584 7.168 5.632 11.264 5.632 5.632 0 9.728-3.584 11.264-5.632 12.8-15.872 34.304-22.016 53.76-15.872 28.16 9.216 54.272 24.064 75.776 43.52 15.36 13.824 20.48 35.328 13.312 54.784-1.536 4.096-1.536 8.704 1.024 12.8s6.144 6.656 10.752 7.168c20.48 3.072 36.864 18.944 41.472 38.912 6.144 28.672 6.144 58.368 0 87.552-4.096 20.48-20.48 35.84-40.96 38.912-4.608 0.512-8.192 3.072-10.752 7.168-2.048 4.096-2.56 8.704-1.024 12.8 7.168 18.944 2.048 40.96-13.312 54.784-22.016 19.968-48.128 34.816-76.288 44.032-19.456 6.144-40.96 0-53.76-15.872-2.56-3.584-7.168-5.632-11.264-5.632-4.608 0-8.704 2.048-11.264 5.632-9.216 11.264-23.552 17.92-38.4 17.92zM741.888 184.832c13.824 0 25.088-11.264 25.088-25.088s-11.264-25.088-25.088-25.088-25.088 11.264-25.088 25.088c0.512 13.824 11.264 25.088 25.088 25.088m0 50.176c-41.472 0-74.752-33.28-74.752-74.752s33.28-74.752 74.752-74.752 74.752 33.28 74.752 74.752c0 40.96-33.28 74.24-74.752 74.752z"  horiz-adv-x="1024" />

    
    <glyph glyph-name="shebeixinxi" unicode="&#59241;" d="M616.934 692.549H241.303v-659.957h537.2V531.163L616.933 692.55z m-311.558-64.074H576.89v-137.357h137.54v-326.672l-78.06 78.059a64.088 64.088 0 0 0-18.666 48.89c1.68 30.138-8.984 60.832-32.008 83.853-30.758 30.754-75.196 39.464-113.712 26.143l69.927-69.928c1.605-27.282-40.575-69.46-67.857-67.853l-69.927 69.927c-13.317-38.519-4.612-82.961 26.143-113.715 23.021-23.023 53.716-33.688 83.85-32.01a64.135 64.135 0 0 0 48.893-18.667l72.482-72.48H305.376v531.81z"  horiz-adv-x="1024" />

    
    <glyph glyph-name="jianceshuju" unicode="&#59242;" d="M138.24 458.752h49.664c0-62.976 143.872-124.416 324.096-124.416s324.096 61.44 324.096 124.416h49.664c0-101.888-168.96-174.592-373.76-174.592s-373.76 72.704-373.76 174.592zM138.24 159.744h49.664c0-62.976 143.872-124.416 324.096-124.416s324.096 61.44 324.096 124.416h49.664c0-101.888-168.96-174.592-373.76-174.592s-373.76 72.704-373.76 174.592z m697.856 448.512h49.664v-448.512h-49.664V608.256zM138.24 608.256h49.664v-448.512H138.24V608.256zM138.24 309.248h49.664c0-62.976 143.872-124.416 324.096-124.416s324.096 61.44 324.096 124.416h49.664c0-101.888-168.96-174.592-373.76-174.592s-373.76 72.704-373.76 174.592zM512 433.664c-204.8 0-373.76 72.192-373.76 174.592s168.96 174.592 373.76 174.592 373.76-72.192 373.76-174.592-168.96-174.592-373.76-174.592z m0 50.176c180.224 0 324.096 61.44 324.096 124.416S692.224 732.672 512 732.672s-324.096-61.44-324.096-124.416S331.776 483.84 512 483.84z m224.256-74.752c-13.824 0-25.088 11.264-25.088 25.088s11.264 25.088 25.088 25.088 25.088-11.264 25.088-25.088c0-14.336-11.264-25.088-25.088-25.088z m0-149.504c-13.824 0-25.088 11.264-25.088 25.088s11.264 25.088 25.088 25.088 25.088-11.264 25.088-25.088-11.264-25.088-25.088-25.088z m0-149.504c-13.824 0-25.088 11.264-25.088 25.088s11.264 25.088 25.088 25.088 25.088-11.264 25.088-25.088c0-14.336-11.264-25.088-25.088-25.088z"  horiz-adv-x="1024" />

    
    <glyph glyph-name="wangdianguanli" unicode="&#59243;" d="M423.936 245.248s4.608-5.632 11.776-5.632 11.776 5.632 11.776 5.632c1.024 1.536 123.392 169.472 164.864 246.272 14.848 27.648 20.992 52.224 20.992 84.992 0 108.032-88.576 195.072-197.632 195.072S238.08 681.984 238.08 574.464c0-28.672 6.656-61.952 19.456-89.088 34.304-74.752 164.864-238.592 166.4-240.128z m11.776 408.576c41.984 0 76.288-34.304 76.288-76.288S477.696 501.76 435.712 501.76s-76.288 34.304-76.288 76.288 34.304 75.776 76.288 75.776zM785.92 352.768c22.016-7.168 41.472-18.432 58.368-33.28-7.168-17.92-5.632-38.4 4.096-55.296 10.24-17.92 27.648-28.672 46.08-31.232 4.608-22.016 4.608-45.056 0-67.072-19.456-3.072-36.352-14.336-46.592-31.232-9.728-16.896-11.264-37.376-4.096-55.296-16.896-14.848-36.864-26.624-58.368-33.28-12.288 14.848-30.72 23.552-49.664 23.552-19.968 0-37.888-9.216-49.664-23.552-21.504 7.168-41.472 18.432-58.368 33.28 7.168 17.92 5.632 38.4-4.096 55.296-9.728 16.896-26.624 28.672-46.08 31.232-4.608 22.016-4.608 45.056 0 67.072 18.432 3.072 35.84 13.824 46.08 31.232 10.24 17.408 10.752 37.376 4.096 55.296 16.896 14.848 36.352 26.624 58.368 33.792 11.776-14.336 29.696-23.552 49.664-23.552 20.48-0.512 37.888 8.704 50.176 23.04M686.08 402.944c-5.12 0-10.24-1.024-15.36-2.56-28.16-9.216-54.272-24.064-76.288-44.032-15.36-13.824-20.48-35.328-13.312-54.272 1.536-4.096 1.536-8.704-1.024-12.8s-6.144-6.656-10.752-7.168c-20.48-3.072-36.864-18.944-40.96-38.912-6.144-28.672-6.144-58.368 0-87.552 4.096-20.48 20.48-35.84 40.96-38.912 2.56-0.512 7.68-2.048 10.752-7.168 2.048-4.096 2.56-8.704 0.512-12.8-7.168-19.456-2.048-40.96 13.312-54.784 22.016-19.968 47.616-34.304 76.288-44.032 19.456-6.144 40.96 0 53.76 15.872 2.56 3.584 7.168 5.632 11.264 5.632 5.632 0 9.728-3.584 11.264-5.632 12.8-15.872 34.304-22.016 53.76-15.872 28.16 9.216 54.272 24.064 76.288 43.52 15.36 13.824 20.48 35.328 13.312 54.784-1.536 4.096-1.536 8.704 1.024 12.8s6.144 6.656 10.752 7.168c20.48 3.072 36.864 18.944 41.472 38.912 6.144 28.672 6.144 58.368 0 87.552-4.096 20.48-20.48 35.84-40.96 38.912-4.608 0.512-8.192 3.072-10.752 7.168-2.048 4.096-2.56 8.704-1.024 12.8 7.168 18.944 2.048 40.96-13.312 54.784-22.016 19.968-48.128 34.816-76.288 43.52-19.456 6.144-40.96 0-53.76-15.872-2.56-3.584-7.168-5.632-11.264-5.632-4.608 0-8.704 2.048-11.264 5.632-9.216 12.288-23.552 18.944-38.4 18.944zM735.744 224.256c13.824 0 25.088-11.264 25.088-25.088s-11.264-25.088-25.088-25.088-25.088 11.264-25.088 25.088c0.512 14.336 11.264 25.088 25.088 25.088m0 50.176c-41.472 0-74.752-33.28-74.752-74.752s33.28-74.752 74.752-74.752 74.752 33.28 74.752 74.752c0 40.96-33.28 74.752-74.752 74.752zM531.968 98.304c-25.088 4.096-45.056 23.04-50.176 47.616-1.536 7.68-2.56 14.848-3.584 22.528-14.848 1.024-29.184 1.024-42.496 1.024-78.848 0-194.56-15.36-266.24-26.112L240.64 317.952c7.68 18.432-1.536 39.424-19.968 47.104s-39.424-1.536-47.104-19.968l-95.232-233.472c-5.12-12.288-3.072-26.112 5.12-36.352 6.656-8.704 17.408-13.312 28.16-13.312 2.048 0 4.096 0 6.144 0.512 2.048 0.512 204.8 35.328 317.44 35.328 31.232 0 69.632-2.56 108.544-6.656-3.072 5.12-8.704 6.656-11.776 7.168z"  horiz-adv-x="1024" />

    
    <glyph glyph-name="wangdianfenbu" unicode="&#59244;" d="M500.3 217.015s4.585-5.454 11.7-5.454 11.858 5.533 11.858 5.533c1.184 1.502 123.153 169.396 164.732 246.308 15.018 27.825 21.104 52.012 21.104 84.738 0 108.213-88.69 195.165-197.694 195.165s-197.774-89.638-197.774-197.141c0-28.536 6.64-61.973 19.208-88.928 34.86-75.094 165.524-238.719 166.867-240.221z m11.7 408.59c41.894 0 76.043-34.148 76.043-76.042S553.894 473.52 512 473.52s-76.043 34.148-76.043 76.043 34.149 76.042 76.043 76.042zM868.894 83.032l-95.172 233.66c-7.51 18.418-28.535 27.271-46.874 19.761-18.418-7.508-27.192-28.456-19.762-46.874l71.063-174.455c-71.38 10.83-187.341 26.244-266.149 26.244s-194.77-15.493-266.149-26.244l71.063 174.455c7.509 18.418-1.344 39.366-19.762 46.874s-39.365-1.344-46.874-19.761l-95.172-233.66c-4.9-12.095-2.925-25.928 5.296-36.124 6.877-8.538 17.232-13.36 27.983-13.36 2.055 0 4.11 0.159 6.165 0.553 2.055 0.317 204.967 35.414 317.371 35.414s315.395-35.097 317.37-35.414a35.978 35.978 0 0 1 34.149 12.885c8.3 10.118 10.355 23.951 5.453 36.046z"  horiz-adv-x="1024" />

    
    <glyph glyph-name="tubiaofenxi" unicode="&#59245;" d="M813.26571656 708.44000244c-38.30999137 0-69.52285766-31.21286632-69.52285768-69.52285767 0-18.53942872 7.31438399-35.41320562 19.19120551-47.94180393L634.09951877 337.36174965c-2.02775002 0.21725894-4.12791968 0.28967857-6.22808932 0.28967857-13.47005367 0-25.99865198-3.8382411-36.71675922-10.50084829L461.81318712 430.63825035c2.53468752 7.1695447 3.8382411 14.8460269 3.8382411 22.88460731 0 38.30999137-31.21286632 69.52285766-69.52285767 69.52285767s-69.52285766-31.21286632-69.52285766-69.52285767c0-13.47005367 3.8382411-25.99865198 10.5008483-36.7167592L233.61889077 287.46461534c-7.1695447 2.53468752-14.8460269 3.8382411-22.88460733 3.8382411-38.30999137 0-69.52285766-31.21286632-69.52285766-69.52285766s31.21286632-69.52285766 69.52285766-69.52285766 69.52285766 31.21286632 69.52285768 69.52285766c0 13.47005367-3.8382411 25.99865198-10.5008483 36.71675921l103.48767042 129.41390275c7.1695447-2.53468752 14.8460269-3.8382411 22.88460731-3.8382411 13.47005367 0 25.99865198 3.8382411 36.71675922 10.5008483l129.41390275-103.48767043c-2.53468752-7.1695447-3.8382411-14.8460269-3.8382411-22.8846073 0-38.30999137 31.21286632-69.52285766 69.52285767-69.52285768s69.52285766 31.21286632 69.52285767 69.52285767c0 19.55330372-8.11100006 37.22369671-21.14653588 49.89713431l127.96550989 251.94793939c2.96920538-0.36209822 5.93841076-0.57935715 9.05245543-0.57935715 38.30999137 0 69.52285766 31.21286632 69.52285766 69.52285767S851.57570791 708.44000244 813.26571656 708.44000244zM210.73428344 198.60571288999995c-12.74585724 0-23.17428589 10.42842865-23.17428588 23.17428589s10.42842865 23.17428589 23.17428588 23.17428589 23.17428589-10.42842865 23.1742859-23.17428589-10.42842865-23.17428589-23.1742859-23.17428589z m185.39428711 231.74285889c-12.74585724 0-23.17428589 10.42842865-23.17428588 23.17428588s10.42842865 23.17428589 23.17428588 23.1742859 23.17428589-10.42842865 23.1742859-23.1742859-10.42842865-23.17428589-23.1742859-23.17428589z m231.7428589-185.39428711c-12.74585724 0-23.17428589 10.42842865-23.17428589 23.17428588s10.42842865 23.17428589 23.17428589 23.1742859 23.17428589-10.42842865 23.17428588-23.1742859-10.42842865-23.17428589-23.17428588-23.17428588z m185.39428711 370.78857421c-12.74585724 0-23.17428589 10.42842865-23.17428589 23.17428589s10.42842865 23.17428589 23.17428589 23.17428589 23.17428589-10.42842865 23.17428588-23.17428589-10.42842865-23.17428589-23.17428588-23.17428589zM164.38571167 337.65142822999996c12.81827689 0 23.17428589 10.35600901 23.17428589 23.17428588V662.09143067h440.31143189c12.81827689 0 23.17428589 10.35600901 23.17428588 23.17428589s-10.35600901 23.17428589-23.17428588 23.17428588H187.55999756C161.99586342 708.44000244 141.21142578 687.65556479 141.21142578 662.09143067v-301.26571656c0-12.81827689 10.35600901-23.17428589 23.17428589-23.17428589z m695.22857666 139.04571532c-12.81827689 0-23.17428589-10.35600901-23.17428589-23.17428589v-347.61428832H303.431427c-12.81827689 0-23.17428589-10.35600901-23.17428588-23.1742859s10.35600901-23.17428589 23.17428588-23.17428588h533.00857544c25.56413413 0 46.34857177 20.78443765 46.34857178 46.34857177V453.52285766c0 12.81827689-10.35600901 23.17428589-23.17428589 23.1742859z"  horiz-adv-x="1024" />

    
    <glyph glyph-name="gaojingrizhi" unicode="&#59246;" d="M646.656 348.16L460.288 796.16H396.288l-320-768h448V92.16H166.912l261.12 627.2 154.624-371.2h64zM460.288 476.16H396.288v-192h64V476.16z m-64-320h64V220.16H396.288v-64zM850.432 274.944h-51.2v24.576c0 6.656-5.632 12.288-12.288 12.288-6.656 0-12.288-5.632-12.288-12.288v-24.576h-70.144v24.576c0 6.656-5.632 12.288-12.288 12.288-6.656 0-12.288-5.632-12.288-12.288v-24.576h-51.2c-16.384 0-29.184-13.312-29.184-29.184v-244.224c0-16.384 13.312-29.184 29.184-29.184H849.92c16.384 0 29.184 13.312 29.184 29.184V245.76c1.024 15.872-12.288 29.184-28.672 29.184z m-5.12-268.8c0-2.56-2.048-4.608-4.608-4.608H640c-2.56 0-4.608 2.048-4.608 4.608v228.864c0 2.56 2.048 4.608 4.608 4.608h40.96v-14.336c0-6.656 5.632-12.288 12.288-12.288s12.288 5.632 12.288 12.288v14.336h70.144v-14.336c0-6.656 5.632-12.288 12.288-12.288 6.656 0 12.288 5.632 12.288 12.288v14.336h40.96c2.56 0 4.608-2.048 4.608-4.608l-0.512-228.864zM817.664 168.448h-155.648c-6.656 0-12.288-5.632-12.288-12.288 0-6.656 5.632-12.288 12.288-12.288h155.648c6.656 0 12.288 5.632 12.288 12.288 0 6.656-5.632 12.288-12.288 12.288z m0-72.192h-155.648c-6.656 0-12.288-5.632-12.288-12.288 0-6.656 5.632-12.288 12.288-12.288h155.648c6.656 0 12.288 5.632 12.288 12.288 0 6.656-5.632 12.288-12.288 12.288z"  horiz-adv-x="1024" />

    


  </font>
</defs>
</svg>
